<svg xmlns="http://www.w3.org/2000/svg" version="1.1" xmlns:xlink="http://www.w3.org/1999/xlink" xmlns:svgjs="http://svgjs.dev/svgjs" width="1500" height="752" viewBox="0 0 1500 752"><g transform="matrix(1,0,0,1,0.16048000000012053,-0.4575799999998935)"><svg viewBox="0 0 375 188" data-background-color="#ffffff" preserveAspectRatio="xMidYMid meet" height="752" width="1500" xmlns="http://www.w3.org/2000/svg" xmlns:xlink="http://www.w3.org/1999/xlink"><g id="tight-bounds" transform="matrix(1,0,0,1,-0.03988000000003922,0.11439499999997338)"><svg viewBox="0 0 375.07953 187.77091000000001" height="187.77091000000001" width="375.07953"><g><svg></svg></g><g><svg viewBox="0 0 375.07953 187.77091000000001" height="187.77091000000001" width="375.07953"><g transform="matrix(1,0,0,1,-10.22024,-32.55278999999999)"><path d="M10.22 214.647v-182.094h375.08v182.094l-20.602 0 0-5.815h14.787v-170.464h-363.45v170.464h14.787l0 5.815z" fill="#bb84e8" fill-rule="nonzero" stroke="none" stroke-width="1" stroke-linecap="butt" stroke-linejoin="miter" stroke-miterlimit="10" stroke-dasharray="" stroke-dashoffset="0" font-family="none" font-weight="none" font-size="none" text-anchor="none" style="mix-blend-mode: normal" data-fill-palette-color="tertiary"></path><g><path d="M53.132 203.869v0c0.917 0 1.903 0.159 2.956 0.477v0l-0.459 1.3c-1.006-0.29-1.877-0.436-2.614-0.436v0c-0.826 0-1.524 0.174-2.096 0.521-0.574 0.35-0.861 0.802-0.861 1.355v0c0 0.306 0.093 0.58 0.278 0.82 0.185 0.24 0.428 0.436 0.727 0.587 0.302 0.151 0.646 0.3 1.033 0.446 0.384 0.149 0.776 0.285 1.176 0.408 0.398 0.121 0.79 0.277 1.177 0.466 0.384 0.19 0.727 0.398 1.029 0.625 0.302 0.226 0.544 0.521 0.727 0.885 0.185 0.364 0.278 0.774 0.278 1.231v0c0 0.318-0.05 0.635-0.151 0.95-0.101 0.316-0.268 0.628-0.501 0.937-0.236 0.311-0.526 0.583-0.871 0.816-0.348 0.236-0.784 0.425-1.31 0.57-0.528 0.146-1.116 0.22-1.764 0.219-0.649 0-1.246-0.067-1.79-0.202-0.544-0.133-1.154-0.334-1.829-0.604v0l0.488-1.379c1.395 0.519 2.497 0.779 3.306 0.779v0c0.848 0 1.539-0.17 2.072-0.511 0.533-0.341 0.799-0.796 0.799-1.366v0c0-0.38-0.118-0.708-0.353-0.984-0.238-0.277-0.545-0.5-0.923-0.669-0.377-0.172-0.795-0.332-1.252-0.48-0.457-0.146-0.914-0.305-1.368-0.477-0.455-0.169-0.871-0.366-1.249-0.59-0.377-0.222-0.685-0.523-0.923-0.902-0.236-0.382-0.353-0.829-0.353-1.341v0c0-0.457 0.11-0.895 0.329-1.314 0.222-0.421 0.528-0.788 0.92-1.101 0.389-0.316 0.877-0.567 1.464-0.755 0.585-0.188 1.221-0.281 1.908-0.281zM62.832 208.675v0c-0.654 0-1.392 0.215-2.212 0.644v0 6.559h-1.372v-12.654h1.372v5.008c0.976-0.519 1.892-0.779 2.747-0.779v0c0.368 0 0.699 0.047 0.992 0.141 0.293 0.096 0.534 0.215 0.724 0.357 0.19 0.142 0.353 0.326 0.49 0.552 0.137 0.226 0.24 0.439 0.309 0.638 0.071 0.199 0.125 0.434 0.161 0.707 0.037 0.274 0.058 0.497 0.065 0.669 0.009 0.174 0.014 0.378 0.014 0.614v0 4.747h-1.406v-5.001c0-1.468-0.628-2.202-1.884-2.202zM72.746 207.446v0c1.146 0 2.088 0.365 2.826 1.095 0.741 0.732 1.111 1.743 1.112 3.032v0c0 1.368-0.378 2.455-1.136 3.262-0.757 0.807-1.736 1.211-2.936 1.211v0c-1.143 0-2.079-0.378-2.806-1.135-0.725-0.757-1.087-1.783-1.087-3.077v0c0-1.336 0.369-2.401 1.108-3.197 0.741-0.794 1.714-1.19 2.919-1.191zM72.629 208.616v0c-0.686 0-1.286 0.265-1.801 0.796-0.515 0.531-0.772 1.259-0.772 2.185v0c0 0.922 0.252 1.698 0.755 2.329 0.503 0.631 1.154 0.947 1.952 0.947v0c0.736 0 1.35-0.279 1.842-0.837 0.492-0.558 0.738-1.286 0.738-2.185v0c0-0.515-0.08-0.981-0.241-1.4-0.158-0.418-0.367-0.759-0.627-1.022-0.258-0.263-0.547-0.464-0.865-0.604-0.32-0.14-0.647-0.209-0.981-0.209zM82.896 207.446v0c0.341 0 0.673 0.04 0.998 0.121 0.322 0.08 0.647 0.222 0.974 0.425 0.327 0.206 0.612 0.463 0.854 0.772 0.242 0.311 0.44 0.715 0.594 1.211 0.156 0.496 0.233 1.054 0.233 1.674v0c0 1.356-0.362 2.429-1.087 3.217-0.723 0.787-1.659 1.18-2.81 1.18v0c-0.659 0-1.325-0.149-1.999-0.446v0 4.724h-1.376v-12.72h0.957l0.226 0.529c0.782-0.457 1.594-0.686 2.436-0.686zM82.426 208.585v0c-0.608 0-1.199 0.153-1.773 0.46v0 5.519c0.597 0.268 1.197 0.401 1.8 0.402v0c0.256 0 0.504-0.029 0.745-0.086 0.24-0.055 0.485-0.157 0.734-0.305 0.247-0.146 0.463-0.332 0.648-0.556 0.183-0.224 0.334-0.52 0.453-0.889 0.117-0.368 0.175-0.784 0.175-1.248v0c0-0.524-0.062-0.987-0.185-1.389-0.121-0.402-0.277-0.72-0.467-0.954-0.19-0.236-0.414-0.429-0.672-0.58-0.256-0.151-0.502-0.25-0.738-0.298-0.233-0.05-0.473-0.075-0.72-0.076zM95.759 215.878l-2.939-8.274h1.464l2.247 6.943 2.127-6.943h1.348l2.209 6.933 2.247-6.933h1.465l-3.022 8.274h-1.383l-2.202-6.71-2.178 6.71zM107.81 205.56v-1.582h1.626v1.582zM107.937 215.878v-8.274h1.372v8.274zM116.53 214.798l0.192 0.936c-0.81 0.208-1.441 0.312-1.894 0.312-0.453 0-0.835-0.073-1.145-0.219-0.313-0.144-0.551-0.35-0.714-0.618-0.162-0.27-0.278-0.559-0.346-0.868-0.071-0.309-0.106-0.664-0.107-1.067v0-4.589h-1.111v-1.081h1.111v-2.37h1.376v2.37h2.521v1.081h-2.521v4.572c0 1.143 0.452 1.715 1.355 1.715v0c0.162 0 0.59-0.058 1.283-0.174zM122.485 208.675v0c-0.654 0-1.392 0.215-2.213 0.644v0 6.559h-1.372v-12.654h1.372v5.008c0.976-0.519 1.892-0.779 2.748-0.779v0c0.368 0 0.699 0.047 0.991 0.141 0.293 0.096 0.534 0.215 0.724 0.357 0.19 0.142 0.353 0.326 0.49 0.552 0.137 0.226 0.241 0.439 0.313 0.638 0.069 0.199 0.121 0.434 0.157 0.707 0.037 0.274 0.058 0.497 0.066 0.669 0.009 0.174 0.014 0.378 0.013 0.614v0 4.747h-1.406v-5.001c0-1.468-0.628-2.202-1.883-2.202zM137.29 215.878l-4.144-11.9h1.691l3.399 10.394 3.4-10.394h1.567l-4.147 11.9zM145.087 205.56v-1.582h1.626v1.582zM145.214 215.878v-8.274h1.372v8.274zM153.035 207.446v0c0.117 0 0.226 0.001 0.329 0.004 0.105 0.002 0.206 0.009 0.302 0.021 0.098 0.011 0.182 0.019 0.25 0.024 0.071 0.007 0.152 0.018 0.244 0.034 0.094 0.016 0.161 0.029 0.202 0.038 0.041 0.009 0.111 0.026 0.209 0.051 0.098 0.025 0.158 0.04 0.179 0.045 0.023 0.005 0.089 0.024 0.199 0.058 0.107 0.034 0.17 0.054 0.188 0.058v0l-0.353 1.046c-0.748-0.206-1.406-0.309-1.976-0.308v0c-0.329 0-0.621 0.033-0.875 0.099-0.254 0.069-0.449 0.15-0.586 0.244-0.137 0.096-0.249 0.207-0.336 0.332-0.087 0.123-0.142 0.233-0.165 0.33-0.025 0.094-0.038 0.186-0.038 0.278v0c0 0.229 0.118 0.432 0.354 0.61 0.238 0.178 0.534 0.324 0.888 0.436 0.354 0.112 0.739 0.245 1.153 0.398 0.412 0.153 0.795 0.314 1.149 0.483 0.354 0.172 0.651 0.41 0.888 0.717 0.238 0.306 0.357 0.661 0.357 1.064v0c0 0.229-0.03 0.451-0.089 0.665-0.057 0.215-0.168 0.44-0.333 0.676-0.165 0.233-0.377 0.436-0.638 0.607-0.258 0.169-0.606 0.31-1.043 0.422-0.434 0.112-0.934 0.168-1.499 0.168v0c-0.853 0-1.791-0.209-2.813-0.628v0l0.385-1.039c0.576 0.213 1.047 0.364 1.413 0.453 0.364 0.089 0.722 0.134 1.073 0.134v0c1.363 0 2.044-0.433 2.045-1.3v0c0-0.19-0.067-0.357-0.202-0.501-0.133-0.144-0.311-0.263-0.536-0.357-0.224-0.091-0.477-0.186-0.758-0.285-0.281-0.098-0.568-0.189-0.861-0.271-0.293-0.085-0.581-0.196-0.864-0.332-0.281-0.135-0.534-0.285-0.758-0.45-0.222-0.165-0.4-0.378-0.535-0.641-0.135-0.263-0.202-0.559-0.203-0.889v0c0-0.201 0.033-0.406 0.1-0.614 0.064-0.21 0.184-0.431 0.36-0.662 0.174-0.233 0.392-0.437 0.655-0.61 0.263-0.176 0.614-0.321 1.053-0.436 0.437-0.114 0.932-0.172 1.486-0.172zM157.984 205.56v-1.582h1.623v1.582zM158.108 215.878v-8.274h1.375v8.274zM166.107 207.446v0c1.143 0 2.086 0.365 2.827 1.095 0.739 0.732 1.108 1.743 1.108 3.032v0c0 1.368-0.377 2.455-1.132 3.262-0.757 0.807-1.736 1.211-2.937 1.211v0c-1.146 0-2.081-0.378-2.805-1.135-0.725-0.757-1.087-1.783-1.088-3.077v0c0-1.336 0.369-2.401 1.108-3.197 0.741-0.794 1.714-1.19 2.919-1.191zM165.991 208.616v0c-0.688 0-1.289 0.265-1.801 0.796-0.515 0.531-0.772 1.259-0.772 2.185v0c0 0.922 0.252 1.698 0.755 2.329 0.503 0.631 1.154 0.947 1.951 0.947v0c0.736 0 1.35-0.279 1.842-0.837 0.492-0.558 0.738-1.286 0.738-2.185v0c0-0.515-0.08-0.981-0.24-1.4-0.158-0.418-0.367-0.759-0.628-1.022-0.258-0.263-0.548-0.464-0.868-0.604-0.318-0.14-0.644-0.209-0.977-0.209zM172.638 215.878v-8.274h0.964l0.302 0.703c1.066-0.581 2.038-0.871 2.916-0.871v0c0.451 0 0.844 0.071 1.18 0.213 0.334 0.144 0.593 0.324 0.779 0.538 0.183 0.215 0.329 0.485 0.439 0.81 0.11 0.327 0.18 0.639 0.209 0.936 0.03 0.295 0.045 0.632 0.045 1.012v0 4.933h-1.373v-5.025c0-1.452-0.625-2.178-1.876-2.178v0c-0.647 0-1.384 0.215-2.209 0.644v0 6.559zM181.331 217.72l1.324-3.265h1.509l-1.324 3.265zM196.609 205.234h-2.312v9.389h1.732c0.252 0 0.46-0.003 0.625-0.011 0.165-0.005 0.388-0.021 0.669-0.048 0.284-0.03 0.527-0.072 0.73-0.127 0.204-0.055 0.434-0.136 0.693-0.243 0.261-0.105 0.492-0.233 0.693-0.384 0.201-0.151 0.402-0.343 0.604-0.577 0.199-0.236 0.374-0.501 0.525-0.795v0c0.368-0.709 0.552-1.572 0.552-2.59v0c0-0.702-0.102-1.337-0.305-1.904-0.204-0.567-0.473-1.028-0.81-1.383-0.338-0.354-0.699-0.635-1.08-0.84-0.384-0.208-0.786-0.348-1.204-0.418v0c-0.245-0.046-0.615-0.069-1.112-0.069zM192.874 203.978h3.684c0.771 0 1.472 0.077 2.102 0.23 0.631 0.153 1.159 0.369 1.585 0.649 0.428 0.279 0.795 0.595 1.101 0.946 0.309 0.352 0.548 0.744 0.717 1.177 0.172 0.432 0.296 0.858 0.374 1.276 0.078 0.418 0.117 0.854 0.117 1.307v0c0 0.519-0.039 1.019-0.117 1.499-0.078 0.48-0.214 0.968-0.408 1.465-0.192 0.499-0.437 0.944-0.734 1.337-0.3 0.393-0.687 0.748-1.163 1.064-0.473 0.316-1.012 0.549-1.616 0.7v0c-0.313 0.078-0.662 0.136-1.046 0.175-0.384 0.039-0.702 0.062-0.953 0.068-0.252 0.005-0.606 0.007-1.064 0.007v0h-2.579zM206.365 207.604l0.257 0.621c0.7-0.519 1.47-0.779 2.312-0.779v0c0.581 0 1.109 0.109 1.585 0.326v0l-0.419 1.098c-0.437-0.169-0.89-0.254-1.358-0.254v0c-0.697 0-1.354 0.193-1.969 0.58v0 6.682h-1.372v-8.274zM215.668 207.446v0c0.402 0 0.764 0.048 1.084 0.145 0.322 0.098 0.59 0.223 0.802 0.373 0.21 0.151 0.392 0.348 0.546 0.59 0.156 0.242 0.273 0.477 0.353 0.704 0.08 0.226 0.143 0.499 0.189 0.816 0.043 0.318 0.071 0.595 0.082 0.83 0.011 0.233 0.017 0.51 0.017 0.83v0 0.652h-5.687c0 0.302 0.069 0.601 0.206 0.899 0.137 0.3 0.33 0.574 0.579 0.823 0.247 0.247 0.573 0.449 0.978 0.607 0.405 0.156 0.853 0.233 1.345 0.233v0c0.581 0 1.21-0.101 1.886-0.301v0l0.24 0.94c-0.899 0.306-1.78 0.46-2.644 0.459v0c-0.608 0-1.149-0.081-1.623-0.243-0.471-0.162-0.851-0.373-1.139-0.632-0.286-0.261-0.521-0.573-0.706-0.936-0.183-0.361-0.31-0.723-0.381-1.084-0.069-0.359-0.103-0.74-0.103-1.142v0c0-0.62 0.074-1.187 0.223-1.702 0.151-0.512 0.356-0.943 0.614-1.293 0.256-0.348 0.556-0.641 0.899-0.881 0.343-0.24 0.703-0.415 1.08-0.525 0.377-0.107 0.764-0.161 1.16-0.162zM215.376 208.633v0c-0.492 0-0.915 0.136-1.269 0.409-0.354 0.27-0.613 0.606-0.775 1.008-0.162 0.402-0.244 0.835-0.244 1.297v0h4.322c0-1.809-0.678-2.713-2.034-2.714zM224.772 207.446v0c0.117 0 0.226 0.001 0.329 0.004 0.105 0.002 0.206 0.009 0.302 0.021 0.098 0.011 0.183 0.019 0.254 0.024 0.069 0.007 0.149 0.018 0.24 0.034 0.094 0.016 0.161 0.029 0.202 0.038 0.041 0.009 0.111 0.026 0.209 0.051 0.098 0.025 0.159 0.04 0.182 0.045 0.021 0.005 0.086 0.024 0.196 0.058 0.107 0.034 0.17 0.054 0.188 0.058v0l-0.353 1.046c-0.748-0.206-1.406-0.309-1.976-0.308v0c-0.329 0-0.621 0.033-0.875 0.099-0.254 0.069-0.449 0.15-0.586 0.244-0.137 0.096-0.249 0.207-0.336 0.332-0.085 0.123-0.14 0.233-0.165 0.33-0.025 0.094-0.038 0.186-0.038 0.278v0c0 0.229 0.118 0.432 0.354 0.61 0.238 0.178 0.534 0.324 0.888 0.436 0.354 0.112 0.739 0.245 1.153 0.398 0.414 0.153 0.798 0.314 1.152 0.483 0.354 0.172 0.649 0.41 0.885 0.717 0.238 0.306 0.357 0.661 0.357 1.064v0c0 0.229-0.03 0.451-0.089 0.665-0.057 0.215-0.168 0.44-0.333 0.676-0.165 0.233-0.377 0.436-0.638 0.607-0.258 0.169-0.606 0.31-1.043 0.422-0.434 0.112-0.934 0.168-1.499 0.168v0c-0.853 0-1.791-0.209-2.813-0.628v0l0.385-1.039c0.576 0.213 1.047 0.364 1.413 0.453 0.366 0.089 0.724 0.134 1.074 0.134v0c1.363 0 2.044-0.433 2.044-1.3v0c0-0.19-0.067-0.357-0.202-0.501-0.133-0.144-0.311-0.263-0.536-0.357-0.222-0.091-0.475-0.186-0.758-0.285-0.281-0.098-0.568-0.189-0.861-0.271-0.293-0.085-0.581-0.196-0.864-0.332-0.281-0.135-0.534-0.285-0.758-0.45-0.222-0.165-0.4-0.378-0.535-0.641-0.133-0.263-0.199-0.559-0.199-0.889v0c0-0.201 0.032-0.406 0.096-0.614 0.064-0.21 0.184-0.431 0.36-0.662 0.176-0.233 0.394-0.437 0.655-0.61 0.263-0.176 0.614-0.321 1.053-0.436 0.437-0.114 0.932-0.172 1.486-0.172zM233.279 207.446v0c0.119 0 0.23 0.001 0.332 0.004 0.103 0.002 0.204 0.009 0.302 0.021 0.098 0.011 0.182 0.019 0.251 0.024 0.071 0.007 0.152 0.018 0.243 0.034 0.091 0.016 0.158 0.029 0.199 0.038 0.043 0.009 0.113 0.026 0.209 0.051 0.098 0.025 0.159 0.04 0.182 0.045 0.023 0.005 0.088 0.024 0.196 0.058 0.11 0.034 0.173 0.054 0.188 0.058v0l-0.349 1.046c-0.748-0.206-1.406-0.309-1.976-0.308v0c-0.329 0-0.622 0.033-0.878 0.099-0.254 0.069-0.448 0.15-0.584 0.244-0.137 0.096-0.249 0.207-0.336 0.332-0.087 0.123-0.143 0.233-0.168 0.33-0.025 0.094-0.038 0.186-0.038 0.278v0c0 0.229 0.119 0.432 0.357 0.61 0.238 0.178 0.534 0.324 0.889 0.436 0.354 0.112 0.738 0.245 1.149 0.398 0.414 0.153 0.798 0.314 1.152 0.483 0.354 0.172 0.651 0.41 0.889 0.717 0.238 0.306 0.357 0.661 0.357 1.064v0c0 0.229-0.03 0.451-0.09 0.665-0.059 0.215-0.172 0.44-0.336 0.676-0.165 0.233-0.376 0.436-0.634 0.607-0.261 0.169-0.608 0.31-1.043 0.422-0.437 0.112-0.936 0.168-1.499 0.168v0c-0.855 0-1.794-0.209-2.817-0.628v0l0.388-1.039c0.574 0.213 1.044 0.364 1.41 0.453 0.366 0.089 0.725 0.134 1.077 0.134v0c1.363 0 2.044-0.433 2.044-1.3v0c0-0.19-0.067-0.357-0.202-0.501-0.135-0.144-0.313-0.263-0.535-0.357-0.224-0.091-0.477-0.186-0.758-0.285-0.284-0.098-0.572-0.189-0.865-0.271-0.293-0.085-0.58-0.196-0.861-0.332-0.281-0.135-0.534-0.285-0.758-0.45-0.224-0.165-0.402-0.378-0.535-0.641-0.135-0.263-0.202-0.559-0.202-0.889v0c0-0.201 0.032-0.406 0.096-0.614 0.064-0.21 0.184-0.431 0.36-0.662 0.176-0.233 0.396-0.437 0.659-0.61 0.261-0.176 0.611-0.321 1.049-0.436 0.439-0.114 0.934-0.172 1.486-0.172zM244.979 215.878l-2.939-8.274h1.464l2.247 6.943 2.127-6.943h1.348l2.209 6.933 2.247-6.933h1.465l-3.022 8.274h-1.383l-2.202-6.71-2.178 6.71zM257.03 205.56v-1.582h1.626v1.582zM257.157 215.878v-8.274h1.372v8.274zM265.75 214.798l0.192 0.936c-0.81 0.208-1.441 0.312-1.894 0.312-0.453 0-0.835-0.073-1.146-0.219-0.313-0.144-0.551-0.35-0.713-0.618-0.162-0.27-0.278-0.559-0.347-0.868-0.071-0.309-0.106-0.664-0.106-1.067v0-4.589h-1.111v-1.081h1.111v-2.37h1.376v2.37h2.521v1.081h-2.521v4.572c0 1.143 0.452 1.715 1.355 1.715v0c0.162 0 0.59-0.058 1.283-0.174zM271.704 208.675v0c-0.654 0-1.392 0.215-2.212 0.644v0 6.559h-1.372v-12.654h1.372v5.008c0.976-0.519 1.892-0.779 2.748-0.779v0c0.368 0 0.699 0.047 0.991 0.141 0.293 0.096 0.534 0.215 0.724 0.357 0.19 0.142 0.353 0.326 0.49 0.552 0.137 0.226 0.241 0.439 0.312 0.638 0.069 0.199 0.121 0.434 0.158 0.707 0.037 0.274 0.058 0.497 0.065 0.669 0.009 0.174 0.014 0.378 0.014 0.614v0 4.747h-1.406v-5.001c0-1.468-0.628-2.202-1.884-2.202zM283.872 215.878v-11.9h1.423v11.9zM288.811 215.878v-8.274h0.964l0.302 0.703c1.066-0.581 2.038-0.871 2.916-0.871v0c0.451 0 0.844 0.071 1.18 0.213 0.334 0.144 0.593 0.324 0.778 0.538 0.185 0.215 0.332 0.485 0.439 0.81 0.11 0.327 0.18 0.639 0.21 0.936 0.032 0.295 0.048 0.632 0.048 1.012v0 4.933h-1.376v-5.025c0-1.452-0.625-2.178-1.876-2.178v0c-0.647 0-1.384 0.215-2.209 0.644v0 6.559zM302.865 214.798l0.192 0.936c-0.81 0.208-1.44 0.312-1.89 0.312-0.453 0-0.836-0.073-1.149-0.219-0.313-0.144-0.55-0.35-0.71-0.618-0.162-0.27-0.279-0.559-0.35-0.868-0.069-0.309-0.103-0.664-0.103-1.067v0-4.589h-1.115v-1.081h1.115v-2.37h1.372v2.37h2.521v1.081h-2.521v4.572c0 1.143 0.453 1.715 1.358 1.715v0c0.16 0 0.587-0.058 1.28-0.174zM310.621 214.17v-6.566h1.372v8.274h-0.961l-0.295-0.696c-1.054 0.576-2.028 0.864-2.922 0.864v0c-0.453 0-0.846-0.071-1.18-0.213-0.336-0.144-0.596-0.321-0.779-0.531-0.185-0.213-0.334-0.483-0.446-0.81-0.112-0.327-0.183-0.638-0.212-0.933-0.03-0.297-0.045-0.636-0.045-1.015v0-4.94h1.372v5.043c0 1.445 0.628 2.168 1.883 2.168v0c0.649 0 1.387-0.215 2.213-0.645zM314.885 205.56v-1.582h1.622v1.582zM315.008 215.878v-8.274h1.376v8.274zM323.601 214.798l0.192 0.936c-0.81 0.208-1.441 0.312-1.894 0.312-0.451 0-0.832-0.073-1.145-0.219-0.313-0.144-0.551-0.35-0.714-0.618-0.16-0.27-0.276-0.559-0.346-0.868-0.069-0.309-0.103-0.664-0.103-1.067v0-4.589h-1.115v-1.081h1.115v-2.37h1.372v2.37h2.521v1.081h-2.521v4.572c0 1.143 0.453 1.715 1.358 1.715v0c0.16 0 0.587-0.058 1.28-0.174zM325.762 205.56v-1.582h1.626v1.582zM325.889 215.878v-8.274h1.372v8.274zM333.885 207.446v0c1.146 0 2.088 0.365 2.826 1.095 0.741 0.732 1.111 1.743 1.112 3.032v0c0 1.368-0.378 2.455-1.136 3.262-0.757 0.807-1.736 1.211-2.936 1.211v0c-1.143 0-2.079-0.378-2.806-1.135-0.725-0.757-1.087-1.783-1.087-3.077v0c0-1.336 0.369-2.401 1.108-3.197 0.741-0.794 1.714-1.19 2.919-1.191zM333.768 208.616v0c-0.686 0-1.286 0.265-1.801 0.796-0.515 0.531-0.772 1.259-0.772 2.185v0c0 0.922 0.252 1.698 0.755 2.329 0.503 0.631 1.154 0.947 1.952 0.947v0c0.736 0 1.35-0.279 1.842-0.837 0.492-0.558 0.738-1.286 0.738-2.185v0c0-0.515-0.08-0.981-0.241-1.4-0.158-0.418-0.367-0.759-0.627-1.022-0.258-0.263-0.547-0.464-0.865-0.604-0.32-0.14-0.647-0.209-0.981-0.209zM340.416 215.878v-8.274h0.964l0.302 0.703c1.066-0.581 2.038-0.871 2.916-0.871v0c0.451 0 0.844 0.071 1.18 0.213 0.334 0.144 0.593 0.324 0.778 0.538 0.185 0.215 0.332 0.485 0.439 0.81 0.11 0.327 0.18 0.639 0.21 0.936 0.032 0.295 0.048 0.632 0.048 1.012v0 4.933h-1.376v-5.025c0-1.452-0.625-2.178-1.876-2.178v0c-0.647 0-1.384 0.215-2.209 0.644v0 6.559z" fill="#4a2876" fill-rule="nonzero" stroke="none" stroke-width="1" stroke-linecap="butt" stroke-linejoin="miter" stroke-miterlimit="10" stroke-dasharray="" stroke-dashoffset="0" font-family="none" font-weight="none" font-size="none" text-anchor="none" style="mix-blend-mode: normal" data-fill-palette-color="secondary" id="text-1"></path></g></g><g transform="matrix(1,0,0,1,29.33176499999999,61.64422423076924)"><svg viewBox="0 0 316.416 64.48246153846154" height="64.48246153846154" width="316.416"><g><svg viewBox="0 0 316.416 64.48246153846154" height="64.48246153846154" width="316.416"><g><svg viewBox="0 0 316.416 64.48246153846154" height="64.48246153846154" width="316.416"><g id="textblocktransform"><svg viewBox="0 0 316.416 64.48246153846154" height="64.48246153846154" width="316.416" id="textblock"><g><svg viewBox="0 0 316.416 64.48246153846154" height="64.48246153846154" width="316.416"><g transform="matrix(1,0,0,1,0,0)"><svg width="316.416" viewBox="0.32 -40.41 261.51 53.3" height="64.48246153846154" data-palette-color="url(#cc5c6809-42b4-41fa-8740-c2a71d4f21ac)"></svg></g></svg></g></svg></g></svg></g><g></g></svg></g></svg></g></svg></g><defs></defs><mask id="c54a5c18-d74c-4d1f-9f88-01d627df9e59"><g id="SvgjsG9256"><svg viewBox="0 0 375.07953 187.77091000000001" height="187.77091000000001" width="375.07953"><g><svg></svg></g><g><svg viewBox="0 0 375.07953 187.77091000000001" height="187.77091000000001" width="375.07953"><g transform="matrix(1,0,0,1,-10.22024,-32.55278999999999)"><path d="M10.22 214.647v-182.094h375.08v182.094l-20.602 0 0-5.815h14.787v-170.464h-363.45v170.464h14.787l0 5.815z" fill="black" fill-rule="nonzero" stroke="none" stroke-width="1" stroke-linecap="butt" stroke-linejoin="miter" stroke-miterlimit="10" stroke-dasharray="" stroke-dashoffset="0" font-family="none" font-weight="none" font-size="none" text-anchor="none" style="mix-blend-mode: normal"></path><g><path d="M53.132 203.869v0c0.917 0 1.903 0.159 2.956 0.477v0l-0.459 1.3c-1.006-0.29-1.877-0.436-2.614-0.436v0c-0.826 0-1.524 0.174-2.096 0.521-0.574 0.35-0.861 0.802-0.861 1.355v0c0 0.306 0.093 0.58 0.278 0.82 0.185 0.24 0.428 0.436 0.727 0.587 0.302 0.151 0.646 0.3 1.033 0.446 0.384 0.149 0.776 0.285 1.176 0.408 0.398 0.121 0.79 0.277 1.177 0.466 0.384 0.19 0.727 0.398 1.029 0.625 0.302 0.226 0.544 0.521 0.727 0.885 0.185 0.364 0.278 0.774 0.278 1.231v0c0 0.318-0.05 0.635-0.151 0.95-0.101 0.316-0.268 0.628-0.501 0.937-0.236 0.311-0.526 0.583-0.871 0.816-0.348 0.236-0.784 0.425-1.31 0.57-0.528 0.146-1.116 0.22-1.764 0.219-0.649 0-1.246-0.067-1.79-0.202-0.544-0.133-1.154-0.334-1.829-0.604v0l0.488-1.379c1.395 0.519 2.497 0.779 3.306 0.779v0c0.848 0 1.539-0.17 2.072-0.511 0.533-0.341 0.799-0.796 0.799-1.366v0c0-0.38-0.118-0.708-0.353-0.984-0.238-0.277-0.545-0.5-0.923-0.669-0.377-0.172-0.795-0.332-1.252-0.48-0.457-0.146-0.914-0.305-1.368-0.477-0.455-0.169-0.871-0.366-1.249-0.59-0.377-0.222-0.685-0.523-0.923-0.902-0.236-0.382-0.353-0.829-0.353-1.341v0c0-0.457 0.11-0.895 0.329-1.314 0.222-0.421 0.528-0.788 0.92-1.101 0.389-0.316 0.877-0.567 1.464-0.755 0.585-0.188 1.221-0.281 1.908-0.281zM62.832 208.675v0c-0.654 0-1.392 0.215-2.212 0.644v0 6.559h-1.372v-12.654h1.372v5.008c0.976-0.519 1.892-0.779 2.747-0.779v0c0.368 0 0.699 0.047 0.992 0.141 0.293 0.096 0.534 0.215 0.724 0.357 0.19 0.142 0.353 0.326 0.49 0.552 0.137 0.226 0.24 0.439 0.309 0.638 0.071 0.199 0.125 0.434 0.161 0.707 0.037 0.274 0.058 0.497 0.065 0.669 0.009 0.174 0.014 0.378 0.014 0.614v0 4.747h-1.406v-5.001c0-1.468-0.628-2.202-1.884-2.202zM72.746 207.446v0c1.146 0 2.088 0.365 2.826 1.095 0.741 0.732 1.111 1.743 1.112 3.032v0c0 1.368-0.378 2.455-1.136 3.262-0.757 0.807-1.736 1.211-2.936 1.211v0c-1.143 0-2.079-0.378-2.806-1.135-0.725-0.757-1.087-1.783-1.087-3.077v0c0-1.336 0.369-2.401 1.108-3.197 0.741-0.794 1.714-1.19 2.919-1.191zM72.629 208.616v0c-0.686 0-1.286 0.265-1.801 0.796-0.515 0.531-0.772 1.259-0.772 2.185v0c0 0.922 0.252 1.698 0.755 2.329 0.503 0.631 1.154 0.947 1.952 0.947v0c0.736 0 1.35-0.279 1.842-0.837 0.492-0.558 0.738-1.286 0.738-2.185v0c0-0.515-0.08-0.981-0.241-1.4-0.158-0.418-0.367-0.759-0.627-1.022-0.258-0.263-0.547-0.464-0.865-0.604-0.32-0.14-0.647-0.209-0.981-0.209zM82.896 207.446v0c0.341 0 0.673 0.04 0.998 0.121 0.322 0.08 0.647 0.222 0.974 0.425 0.327 0.206 0.612 0.463 0.854 0.772 0.242 0.311 0.44 0.715 0.594 1.211 0.156 0.496 0.233 1.054 0.233 1.674v0c0 1.356-0.362 2.429-1.087 3.217-0.723 0.787-1.659 1.18-2.81 1.18v0c-0.659 0-1.325-0.149-1.999-0.446v0 4.724h-1.376v-12.72h0.957l0.226 0.529c0.782-0.457 1.594-0.686 2.436-0.686zM82.426 208.585v0c-0.608 0-1.199 0.153-1.773 0.46v0 5.519c0.597 0.268 1.197 0.401 1.8 0.402v0c0.256 0 0.504-0.029 0.745-0.086 0.24-0.055 0.485-0.157 0.734-0.305 0.247-0.146 0.463-0.332 0.648-0.556 0.183-0.224 0.334-0.52 0.453-0.889 0.117-0.368 0.175-0.784 0.175-1.248v0c0-0.524-0.062-0.987-0.185-1.389-0.121-0.402-0.277-0.72-0.467-0.954-0.19-0.236-0.414-0.429-0.672-0.58-0.256-0.151-0.502-0.25-0.738-0.298-0.233-0.05-0.473-0.075-0.72-0.076zM95.759 215.878l-2.939-8.274h1.464l2.247 6.943 2.127-6.943h1.348l2.209 6.933 2.247-6.933h1.465l-3.022 8.274h-1.383l-2.202-6.71-2.178 6.71zM107.81 205.56v-1.582h1.626v1.582zM107.937 215.878v-8.274h1.372v8.274zM116.53 214.798l0.192 0.936c-0.81 0.208-1.441 0.312-1.894 0.312-0.453 0-0.835-0.073-1.145-0.219-0.313-0.144-0.551-0.35-0.714-0.618-0.162-0.27-0.278-0.559-0.346-0.868-0.071-0.309-0.106-0.664-0.107-1.067v0-4.589h-1.111v-1.081h1.111v-2.37h1.376v2.37h2.521v1.081h-2.521v4.572c0 1.143 0.452 1.715 1.355 1.715v0c0.162 0 0.59-0.058 1.283-0.174zM122.485 208.675v0c-0.654 0-1.392 0.215-2.213 0.644v0 6.559h-1.372v-12.654h1.372v5.008c0.976-0.519 1.892-0.779 2.748-0.779v0c0.368 0 0.699 0.047 0.991 0.141 0.293 0.096 0.534 0.215 0.724 0.357 0.19 0.142 0.353 0.326 0.49 0.552 0.137 0.226 0.241 0.439 0.313 0.638 0.069 0.199 0.121 0.434 0.157 0.707 0.037 0.274 0.058 0.497 0.066 0.669 0.009 0.174 0.014 0.378 0.013 0.614v0 4.747h-1.406v-5.001c0-1.468-0.628-2.202-1.883-2.202zM137.29 215.878l-4.144-11.9h1.691l3.399 10.394 3.4-10.394h1.567l-4.147 11.9zM145.087 205.56v-1.582h1.626v1.582zM145.214 215.878v-8.274h1.372v8.274zM153.035 207.446v0c0.117 0 0.226 0.001 0.329 0.004 0.105 0.002 0.206 0.009 0.302 0.021 0.098 0.011 0.182 0.019 0.25 0.024 0.071 0.007 0.152 0.018 0.244 0.034 0.094 0.016 0.161 0.029 0.202 0.038 0.041 0.009 0.111 0.026 0.209 0.051 0.098 0.025 0.158 0.04 0.179 0.045 0.023 0.005 0.089 0.024 0.199 0.058 0.107 0.034 0.17 0.054 0.188 0.058v0l-0.353 1.046c-0.748-0.206-1.406-0.309-1.976-0.308v0c-0.329 0-0.621 0.033-0.875 0.099-0.254 0.069-0.449 0.15-0.586 0.244-0.137 0.096-0.249 0.207-0.336 0.332-0.087 0.123-0.142 0.233-0.165 0.33-0.025 0.094-0.038 0.186-0.038 0.278v0c0 0.229 0.118 0.432 0.354 0.61 0.238 0.178 0.534 0.324 0.888 0.436 0.354 0.112 0.739 0.245 1.153 0.398 0.412 0.153 0.795 0.314 1.149 0.483 0.354 0.172 0.651 0.41 0.888 0.717 0.238 0.306 0.357 0.661 0.357 1.064v0c0 0.229-0.03 0.451-0.089 0.665-0.057 0.215-0.168 0.44-0.333 0.676-0.165 0.233-0.377 0.436-0.638 0.607-0.258 0.169-0.606 0.31-1.043 0.422-0.434 0.112-0.934 0.168-1.499 0.168v0c-0.853 0-1.791-0.209-2.813-0.628v0l0.385-1.039c0.576 0.213 1.047 0.364 1.413 0.453 0.364 0.089 0.722 0.134 1.073 0.134v0c1.363 0 2.044-0.433 2.045-1.3v0c0-0.19-0.067-0.357-0.202-0.501-0.133-0.144-0.311-0.263-0.536-0.357-0.224-0.091-0.477-0.186-0.758-0.285-0.281-0.098-0.568-0.189-0.861-0.271-0.293-0.085-0.581-0.196-0.864-0.332-0.281-0.135-0.534-0.285-0.758-0.45-0.222-0.165-0.4-0.378-0.535-0.641-0.135-0.263-0.202-0.559-0.203-0.889v0c0-0.201 0.033-0.406 0.1-0.614 0.064-0.21 0.184-0.431 0.36-0.662 0.174-0.233 0.392-0.437 0.655-0.61 0.263-0.176 0.614-0.321 1.053-0.436 0.437-0.114 0.932-0.172 1.486-0.172zM157.984 205.56v-1.582h1.623v1.582zM158.108 215.878v-8.274h1.375v8.274zM166.107 207.446v0c1.143 0 2.086 0.365 2.827 1.095 0.739 0.732 1.108 1.743 1.108 3.032v0c0 1.368-0.377 2.455-1.132 3.262-0.757 0.807-1.736 1.211-2.937 1.211v0c-1.146 0-2.081-0.378-2.805-1.135-0.725-0.757-1.087-1.783-1.088-3.077v0c0-1.336 0.369-2.401 1.108-3.197 0.741-0.794 1.714-1.19 2.919-1.191zM165.991 208.616v0c-0.688 0-1.289 0.265-1.801 0.796-0.515 0.531-0.772 1.259-0.772 2.185v0c0 0.922 0.252 1.698 0.755 2.329 0.503 0.631 1.154 0.947 1.951 0.947v0c0.736 0 1.35-0.279 1.842-0.837 0.492-0.558 0.738-1.286 0.738-2.185v0c0-0.515-0.08-0.981-0.24-1.4-0.158-0.418-0.367-0.759-0.628-1.022-0.258-0.263-0.548-0.464-0.868-0.604-0.318-0.14-0.644-0.209-0.977-0.209zM172.638 215.878v-8.274h0.964l0.302 0.703c1.066-0.581 2.038-0.871 2.916-0.871v0c0.451 0 0.844 0.071 1.18 0.213 0.334 0.144 0.593 0.324 0.779 0.538 0.183 0.215 0.329 0.485 0.439 0.81 0.11 0.327 0.18 0.639 0.209 0.936 0.03 0.295 0.045 0.632 0.045 1.012v0 4.933h-1.373v-5.025c0-1.452-0.625-2.178-1.876-2.178v0c-0.647 0-1.384 0.215-2.209 0.644v0 6.559zM181.331 217.72l1.324-3.265h1.509l-1.324 3.265zM196.609 205.234h-2.312v9.389h1.732c0.252 0 0.46-0.003 0.625-0.011 0.165-0.005 0.388-0.021 0.669-0.048 0.284-0.03 0.527-0.072 0.73-0.127 0.204-0.055 0.434-0.136 0.693-0.243 0.261-0.105 0.492-0.233 0.693-0.384 0.201-0.151 0.402-0.343 0.604-0.577 0.199-0.236 0.374-0.501 0.525-0.795v0c0.368-0.709 0.552-1.572 0.552-2.59v0c0-0.702-0.102-1.337-0.305-1.904-0.204-0.567-0.473-1.028-0.81-1.383-0.338-0.354-0.699-0.635-1.08-0.84-0.384-0.208-0.786-0.348-1.204-0.418v0c-0.245-0.046-0.615-0.069-1.112-0.069zM192.874 203.978h3.684c0.771 0 1.472 0.077 2.102 0.23 0.631 0.153 1.159 0.369 1.585 0.649 0.428 0.279 0.795 0.595 1.101 0.946 0.309 0.352 0.548 0.744 0.717 1.177 0.172 0.432 0.296 0.858 0.374 1.276 0.078 0.418 0.117 0.854 0.117 1.307v0c0 0.519-0.039 1.019-0.117 1.499-0.078 0.48-0.214 0.968-0.408 1.465-0.192 0.499-0.437 0.944-0.734 1.337-0.3 0.393-0.687 0.748-1.163 1.064-0.473 0.316-1.012 0.549-1.616 0.7v0c-0.313 0.078-0.662 0.136-1.046 0.175-0.384 0.039-0.702 0.062-0.953 0.068-0.252 0.005-0.606 0.007-1.064 0.007v0h-2.579zM206.365 207.604l0.257 0.621c0.7-0.519 1.47-0.779 2.312-0.779v0c0.581 0 1.109 0.109 1.585 0.326v0l-0.419 1.098c-0.437-0.169-0.89-0.254-1.358-0.254v0c-0.697 0-1.354 0.193-1.969 0.58v0 6.682h-1.372v-8.274zM215.668 207.446v0c0.402 0 0.764 0.048 1.084 0.145 0.322 0.098 0.59 0.223 0.802 0.373 0.21 0.151 0.392 0.348 0.546 0.59 0.156 0.242 0.273 0.477 0.353 0.704 0.08 0.226 0.143 0.499 0.189 0.816 0.043 0.318 0.071 0.595 0.082 0.83 0.011 0.233 0.017 0.51 0.017 0.83v0 0.652h-5.687c0 0.302 0.069 0.601 0.206 0.899 0.137 0.3 0.33 0.574 0.579 0.823 0.247 0.247 0.573 0.449 0.978 0.607 0.405 0.156 0.853 0.233 1.345 0.233v0c0.581 0 1.21-0.101 1.886-0.301v0l0.24 0.94c-0.899 0.306-1.78 0.46-2.644 0.459v0c-0.608 0-1.149-0.081-1.623-0.243-0.471-0.162-0.851-0.373-1.139-0.632-0.286-0.261-0.521-0.573-0.706-0.936-0.183-0.361-0.31-0.723-0.381-1.084-0.069-0.359-0.103-0.74-0.103-1.142v0c0-0.62 0.074-1.187 0.223-1.702 0.151-0.512 0.356-0.943 0.614-1.293 0.256-0.348 0.556-0.641 0.899-0.881 0.343-0.24 0.703-0.415 1.08-0.525 0.377-0.107 0.764-0.161 1.16-0.162zM215.376 208.633v0c-0.492 0-0.915 0.136-1.269 0.409-0.354 0.27-0.613 0.606-0.775 1.008-0.162 0.402-0.244 0.835-0.244 1.297v0h4.322c0-1.809-0.678-2.713-2.034-2.714zM224.772 207.446v0c0.117 0 0.226 0.001 0.329 0.004 0.105 0.002 0.206 0.009 0.302 0.021 0.098 0.011 0.183 0.019 0.254 0.024 0.069 0.007 0.149 0.018 0.24 0.034 0.094 0.016 0.161 0.029 0.202 0.038 0.041 0.009 0.111 0.026 0.209 0.051 0.098 0.025 0.159 0.04 0.182 0.045 0.021 0.005 0.086 0.024 0.196 0.058 0.107 0.034 0.17 0.054 0.188 0.058v0l-0.353 1.046c-0.748-0.206-1.406-0.309-1.976-0.308v0c-0.329 0-0.621 0.033-0.875 0.099-0.254 0.069-0.449 0.15-0.586 0.244-0.137 0.096-0.249 0.207-0.336 0.332-0.085 0.123-0.14 0.233-0.165 0.33-0.025 0.094-0.038 0.186-0.038 0.278v0c0 0.229 0.118 0.432 0.354 0.61 0.238 0.178 0.534 0.324 0.888 0.436 0.354 0.112 0.739 0.245 1.153 0.398 0.414 0.153 0.798 0.314 1.152 0.483 0.354 0.172 0.649 0.41 0.885 0.717 0.238 0.306 0.357 0.661 0.357 1.064v0c0 0.229-0.03 0.451-0.089 0.665-0.057 0.215-0.168 0.44-0.333 0.676-0.165 0.233-0.377 0.436-0.638 0.607-0.258 0.169-0.606 0.31-1.043 0.422-0.434 0.112-0.934 0.168-1.499 0.168v0c-0.853 0-1.791-0.209-2.813-0.628v0l0.385-1.039c0.576 0.213 1.047 0.364 1.413 0.453 0.366 0.089 0.724 0.134 1.074 0.134v0c1.363 0 2.044-0.433 2.044-1.3v0c0-0.19-0.067-0.357-0.202-0.501-0.133-0.144-0.311-0.263-0.536-0.357-0.222-0.091-0.475-0.186-0.758-0.285-0.281-0.098-0.568-0.189-0.861-0.271-0.293-0.085-0.581-0.196-0.864-0.332-0.281-0.135-0.534-0.285-0.758-0.45-0.222-0.165-0.4-0.378-0.535-0.641-0.133-0.263-0.199-0.559-0.199-0.889v0c0-0.201 0.032-0.406 0.096-0.614 0.064-0.21 0.184-0.431 0.36-0.662 0.176-0.233 0.394-0.437 0.655-0.61 0.263-0.176 0.614-0.321 1.053-0.436 0.437-0.114 0.932-0.172 1.486-0.172zM233.279 207.446v0c0.119 0 0.23 0.001 0.332 0.004 0.103 0.002 0.204 0.009 0.302 0.021 0.098 0.011 0.182 0.019 0.251 0.024 0.071 0.007 0.152 0.018 0.243 0.034 0.091 0.016 0.158 0.029 0.199 0.038 0.043 0.009 0.113 0.026 0.209 0.051 0.098 0.025 0.159 0.04 0.182 0.045 0.023 0.005 0.088 0.024 0.196 0.058 0.11 0.034 0.173 0.054 0.188 0.058v0l-0.349 1.046c-0.748-0.206-1.406-0.309-1.976-0.308v0c-0.329 0-0.622 0.033-0.878 0.099-0.254 0.069-0.448 0.15-0.584 0.244-0.137 0.096-0.249 0.207-0.336 0.332-0.087 0.123-0.143 0.233-0.168 0.33-0.025 0.094-0.038 0.186-0.038 0.278v0c0 0.229 0.119 0.432 0.357 0.61 0.238 0.178 0.534 0.324 0.889 0.436 0.354 0.112 0.738 0.245 1.149 0.398 0.414 0.153 0.798 0.314 1.152 0.483 0.354 0.172 0.651 0.41 0.889 0.717 0.238 0.306 0.357 0.661 0.357 1.064v0c0 0.229-0.03 0.451-0.09 0.665-0.059 0.215-0.172 0.44-0.336 0.676-0.165 0.233-0.376 0.436-0.634 0.607-0.261 0.169-0.608 0.31-1.043 0.422-0.437 0.112-0.936 0.168-1.499 0.168v0c-0.855 0-1.794-0.209-2.817-0.628v0l0.388-1.039c0.574 0.213 1.044 0.364 1.41 0.453 0.366 0.089 0.725 0.134 1.077 0.134v0c1.363 0 2.044-0.433 2.044-1.3v0c0-0.19-0.067-0.357-0.202-0.501-0.135-0.144-0.313-0.263-0.535-0.357-0.224-0.091-0.477-0.186-0.758-0.285-0.284-0.098-0.572-0.189-0.865-0.271-0.293-0.085-0.58-0.196-0.861-0.332-0.281-0.135-0.534-0.285-0.758-0.45-0.224-0.165-0.402-0.378-0.535-0.641-0.135-0.263-0.202-0.559-0.202-0.889v0c0-0.201 0.032-0.406 0.096-0.614 0.064-0.21 0.184-0.431 0.36-0.662 0.176-0.233 0.396-0.437 0.659-0.61 0.261-0.176 0.611-0.321 1.049-0.436 0.439-0.114 0.934-0.172 1.486-0.172zM244.979 215.878l-2.939-8.274h1.464l2.247 6.943 2.127-6.943h1.348l2.209 6.933 2.247-6.933h1.465l-3.022 8.274h-1.383l-2.202-6.71-2.178 6.71zM257.03 205.56v-1.582h1.626v1.582zM257.157 215.878v-8.274h1.372v8.274zM265.75 214.798l0.192 0.936c-0.81 0.208-1.441 0.312-1.894 0.312-0.453 0-0.835-0.073-1.146-0.219-0.313-0.144-0.551-0.35-0.713-0.618-0.162-0.27-0.278-0.559-0.347-0.868-0.071-0.309-0.106-0.664-0.106-1.067v0-4.589h-1.111v-1.081h1.111v-2.37h1.376v2.37h2.521v1.081h-2.521v4.572c0 1.143 0.452 1.715 1.355 1.715v0c0.162 0 0.59-0.058 1.283-0.174zM271.704 208.675v0c-0.654 0-1.392 0.215-2.212 0.644v0 6.559h-1.372v-12.654h1.372v5.008c0.976-0.519 1.892-0.779 2.748-0.779v0c0.368 0 0.699 0.047 0.991 0.141 0.293 0.096 0.534 0.215 0.724 0.357 0.19 0.142 0.353 0.326 0.49 0.552 0.137 0.226 0.241 0.439 0.312 0.638 0.069 0.199 0.121 0.434 0.158 0.707 0.037 0.274 0.058 0.497 0.065 0.669 0.009 0.174 0.014 0.378 0.014 0.614v0 4.747h-1.406v-5.001c0-1.468-0.628-2.202-1.884-2.202zM283.872 215.878v-11.9h1.423v11.9zM288.811 215.878v-8.274h0.964l0.302 0.703c1.066-0.581 2.038-0.871 2.916-0.871v0c0.451 0 0.844 0.071 1.18 0.213 0.334 0.144 0.593 0.324 0.778 0.538 0.185 0.215 0.332 0.485 0.439 0.81 0.11 0.327 0.18 0.639 0.21 0.936 0.032 0.295 0.048 0.632 0.048 1.012v0 4.933h-1.376v-5.025c0-1.452-0.625-2.178-1.876-2.178v0c-0.647 0-1.384 0.215-2.209 0.644v0 6.559zM302.865 214.798l0.192 0.936c-0.81 0.208-1.44 0.312-1.89 0.312-0.453 0-0.836-0.073-1.149-0.219-0.313-0.144-0.55-0.35-0.71-0.618-0.162-0.27-0.279-0.559-0.35-0.868-0.069-0.309-0.103-0.664-0.103-1.067v0-4.589h-1.115v-1.081h1.115v-2.37h1.372v2.37h2.521v1.081h-2.521v4.572c0 1.143 0.453 1.715 1.358 1.715v0c0.16 0 0.587-0.058 1.28-0.174zM310.621 214.17v-6.566h1.372v8.274h-0.961l-0.295-0.696c-1.054 0.576-2.028 0.864-2.922 0.864v0c-0.453 0-0.846-0.071-1.18-0.213-0.336-0.144-0.596-0.321-0.779-0.531-0.185-0.213-0.334-0.483-0.446-0.81-0.112-0.327-0.183-0.638-0.212-0.933-0.03-0.297-0.045-0.636-0.045-1.015v0-4.94h1.372v5.043c0 1.445 0.628 2.168 1.883 2.168v0c0.649 0 1.387-0.215 2.213-0.645zM314.885 205.56v-1.582h1.622v1.582zM315.008 215.878v-8.274h1.376v8.274zM323.601 214.798l0.192 0.936c-0.81 0.208-1.441 0.312-1.894 0.312-0.451 0-0.832-0.073-1.145-0.219-0.313-0.144-0.551-0.35-0.714-0.618-0.16-0.27-0.276-0.559-0.346-0.868-0.069-0.309-0.103-0.664-0.103-1.067v0-4.589h-1.115v-1.081h1.115v-2.37h1.372v2.37h2.521v1.081h-2.521v4.572c0 1.143 0.453 1.715 1.358 1.715v0c0.16 0 0.587-0.058 1.28-0.174zM325.762 205.56v-1.582h1.626v1.582zM325.889 215.878v-8.274h1.372v8.274zM333.885 207.446v0c1.146 0 2.088 0.365 2.826 1.095 0.741 0.732 1.111 1.743 1.112 3.032v0c0 1.368-0.378 2.455-1.136 3.262-0.757 0.807-1.736 1.211-2.936 1.211v0c-1.143 0-2.079-0.378-2.806-1.135-0.725-0.757-1.087-1.783-1.087-3.077v0c0-1.336 0.369-2.401 1.108-3.197 0.741-0.794 1.714-1.19 2.919-1.191zM333.768 208.616v0c-0.686 0-1.286 0.265-1.801 0.796-0.515 0.531-0.772 1.259-0.772 2.185v0c0 0.922 0.252 1.698 0.755 2.329 0.503 0.631 1.154 0.947 1.952 0.947v0c0.736 0 1.35-0.279 1.842-0.837 0.492-0.558 0.738-1.286 0.738-2.185v0c0-0.515-0.08-0.981-0.241-1.4-0.158-0.418-0.367-0.759-0.627-1.022-0.258-0.263-0.547-0.464-0.865-0.604-0.32-0.14-0.647-0.209-0.981-0.209zM340.416 215.878v-8.274h0.964l0.302 0.703c1.066-0.581 2.038-0.871 2.916-0.871v0c0.451 0 0.844 0.071 1.18 0.213 0.334 0.144 0.593 0.324 0.778 0.538 0.185 0.215 0.332 0.485 0.439 0.81 0.11 0.327 0.18 0.639 0.21 0.936 0.032 0.295 0.048 0.632 0.048 1.012v0 4.933h-1.376v-5.025c0-1.452-0.625-2.178-1.876-2.178v0c-0.647 0-1.384 0.215-2.209 0.644v0 6.559z" fill="black" fill-rule="nonzero" stroke="none" stroke-width="1" stroke-linecap="butt" stroke-linejoin="miter" stroke-miterlimit="10" stroke-dasharray="" stroke-dashoffset="0" font-family="none" font-weight="none" font-size="none" text-anchor="none" style="mix-blend-mode: normal" id="SvgjsPath9255"></path></g></g><g transform="matrix(1,0,0,1,29.33176499999999,61.64422423076924)"><svg viewBox="0 0 316.416 64.48246153846154" height="64.48246153846154" width="316.416"><g><svg viewBox="0 0 316.416 64.48246153846154" height="64.48246153846154" width="316.416"><g><svg viewBox="0 0 316.416 64.48246153846154" height="64.48246153846154" width="316.416"><g id="SvgjsG9254"><svg viewBox="0 0 316.416 64.48246153846154" height="64.48246153846154" width="316.416" id="SvgjsSvg9253"><g><svg viewBox="0 0 316.416 64.48246153846154" height="64.48246153846154" width="316.416"><g transform="matrix(1,0,0,1,0,0)"><svg width="316.416" viewBox="0.32 -40.41 261.51 53.3" height="64.48246153846154" data-palette-color="url(#cc5c6809-42b4-41fa-8740-c2a71d4f21ac)"><path d="M17.04 0L0.32-38.16 8.89-38.16 20.87-9.06 32.86-38.16 41.43-38.16 24.71 0 17.04 0ZM50.07-32.74L50.07-32.74Q49-32.74 48.13-33.04 47.26-33.35 46.65-33.87 46.04-34.4 45.71-35.1 45.38-35.79 45.38-36.57L45.38-36.57Q45.38-37.38 45.71-38.07 46.04-38.77 46.65-39.28 47.26-39.79 48.13-40.1 49-40.41 50.07-40.41L50.07-40.41Q51.17-40.41 52.04-40.1 52.9-39.79 53.51-39.28 54.12-38.77 54.45-38.07 54.78-37.38 54.78-36.57L54.78-36.57Q54.78-35.79 54.45-35.1 54.12-34.4 53.51-33.87 52.9-33.35 52.04-33.04 51.17-32.74 50.07-32.74ZM46.46 0L46.46-28.81 53.68-28.81 53.68 0 46.46 0ZM60.96-3.37L64.08-8.84Q67.01-7.08 70.53-6.25 74.04-5.42 77.73-5.42L77.73-5.42Q80.22-5.42 81.88-5.76 83.54-6.1 84.54-6.64 85.54-7.18 85.96-7.86 86.37-8.54 86.37-9.25L86.37-9.25Q86.37-10.28 85.48-11.01 84.59-11.74 82.54-11.74L82.54-11.74Q81.59-11.74 80.49-11.62 79.39-11.5 78.18-11.36 76.97-11.23 75.67-11.11 74.36-10.99 73.02-10.99L73.02-10.99Q70.09-10.99 68.02-11.62 65.96-12.26 64.67-13.35 63.37-14.45 62.79-15.95 62.2-17.46 62.2-19.19L62.2-19.19Q62.2-21.39 63.23-23.24 64.25-25.1 66.16-26.45 68.06-27.81 70.76-28.56 73.46-29.32 76.78-29.32L76.78-29.32Q78.51-29.32 80.4-29.11 82.29-28.91 84.13-28.56 85.96-28.22 87.64-27.77 89.33-27.32 90.62-26.81L90.62-26.81 88.35-21.19Q85.59-22.22 82.84-22.81 80.1-23.41 77.19-23.41L77.19-23.41Q75.17-23.41 73.76-23.11 72.36-22.8 71.48-22.3 70.6-21.8 70.2-21.15 69.79-20.51 69.79-19.8L69.79-19.8Q69.79-19.29 70-18.87 70.21-18.46 70.69-18.15 71.16-17.85 71.93-17.69 72.7-17.53 73.82-17.53L73.82-17.53Q74.85-17.53 76-17.65 77.14-17.77 78.39-17.91 79.63-18.04 80.96-18.16 82.29-18.29 83.69-18.29L83.69-18.29Q86.27-18.29 88.22-17.68 90.16-17.07 91.43-15.97 92.7-14.87 93.33-13.38 93.96-11.89 93.96-10.13L93.96-10.13Q93.96-7.86 92.91-5.91 91.87-3.96 89.79-2.53 87.71-1.1 84.63-0.29 81.54 0.51 77.49 0.51L77.49 0.51Q75 0.51 72.68 0.21 70.36-0.1 68.26-0.62 66.16-1.15 64.31-1.86 62.47-2.56 60.96-3.37L60.96-3.37ZM100.46-13.75L100.46-28.83 107.66-28.83 107.66-14.77Q107.66-12.77 108.1-11.12 108.54-9.47 109.6-8.3 110.66-7.13 112.43-6.48 114.2-5.83 116.84-5.83L116.84-5.83Q118.08-5.83 119.37-6.1 120.65-6.37 121.82-6.85 122.99-7.32 124-7.98 125.02-8.64 125.75-9.42L125.75-9.42 125.75-28.83 132.98-28.83 132.98 0 125.75 0 125.75-2.47Q123.09-0.88 120.4-0.2 117.72 0.49 115.3 0.49L115.3 0.49Q111.35 0.49 108.53-0.46 105.71-1.42 103.91-3.23 102.12-5.05 101.29-7.7 100.46-10.35 100.46-13.75L100.46-13.75ZM143.06 0L143.06-38.16 163.44-38.16Q167.18-38.16 169.95-37.37 172.72-36.57 174.55-35.18 176.38-33.79 177.27-31.87 178.16-29.96 178.16-27.73L178.16-27.73Q178.16-24.1 175.87-21.36L175.87-21.36Q178.51-19.8 179.8-17.31 181.09-14.82 181.09-11.65L181.09-11.65Q181.09-8.98 180.2-6.84 179.31-4.69 177.49-3.16 175.67-1.64 172.9-0.82 170.13 0 166.37 0L166.37 0 143.06 0ZM150.8-23.51L166.42-23.51Q167.42-23.51 168.37-23.44L168.37-23.44Q170.01-25 170.01-27L170.01-27Q170.01-29.08 168.39-30.21 166.76-31.35 163.64-31.35L163.64-31.35 150.8-31.35 150.8-23.51ZM150.8-6.74L166.57-6.74Q169.69-6.74 171.32-8.08 172.94-9.42 172.94-11.87L172.94-11.87Q172.94-14.31 171.32-15.67 169.69-17.04 166.57-17.04L166.57-17.04 150.8-17.04 150.8-6.74ZM188.02-13.75L188.02-28.83 195.23-28.83 195.23-14.77Q195.23-12.77 195.67-11.12 196.11-9.47 197.17-8.3 198.23-7.13 200-6.48 201.77-5.83 204.41-5.83L204.41-5.83Q205.65-5.83 206.93-6.1 208.22-6.37 209.39-6.85 210.56-7.32 211.57-7.98 212.59-8.64 213.32-9.42L213.32-9.42 213.32-28.83 220.54-28.83 220.54 0 213.32 0 213.32-2.47Q210.66-0.88 207.97-0.2 205.29 0.49 202.87 0.49L202.87 0.49Q198.91 0.49 196.09-0.46 193.27-1.42 191.48-3.23 189.68-5.05 188.85-7.7 188.02-10.35 188.02-13.75L188.02-13.75ZM230.48 9.72L233.16 3.61Q234.29 4.35 235.61 4.91 236.92 5.47 238.35 5.83 239.78 6.2 241.27 6.38 242.76 6.57 244.22 6.57L244.22 6.57Q249.2 6.57 251.9 4.43 254.6 2.29 254.6-1.98L254.6-1.98 254.6-2.95Q253.65-2.29 252.46-1.75 251.28-1.2 249.92-0.81 248.57-0.42 247.07-0.21 245.57 0 244.03 0L244.03 0Q240.73 0 238.13-0.96 235.53-1.93 233.74-3.8 231.94-5.66 230.99-8.4 230.04-11.13 230.04-14.65L230.04-14.65 230.04-28.81 237.24-28.81 237.24-16.65Q237.24-11.43 239.23-8.95 241.22-6.47 245.52-6.47L245.52-6.47Q248.54-6.47 250.88-7.53 253.21-8.59 254.6-10.25L254.6-10.25 254.6-28.81 261.83-28.81 261.83-3.3Q261.83 0.83 260.65 3.87 259.48 6.91 257.25 8.91 255.01 10.91 251.77 11.9 248.52 12.89 244.39 12.89L244.39 12.89Q240.37 12.89 236.87 12.04 233.38 11.18 230.48 9.72L230.48 9.72Z" opacity="1" transform="matrix(1,0,0,1,0,0)" fill="white" class="wordmark-text-0" id="SvgjsPath9252"></path></svg></g></svg></g></svg></g></svg></g><g></g></svg></g></svg></g></svg></g><defs><mask></mask></defs></svg><rect width="375.07953" height="187.77091000000001" fill="black" stroke="none" visibility="hidden"></rect></g></mask><linearGradient x1="0" x2="1" y1="0.548" y2="0.55" id="cc5c6809-42b4-41fa-8740-c2a71d4f21ac"><stop stop-color="#ff6cab" offset="0"></stop><stop stop-color="#7366ff" offset="1"></stop></linearGradient><rect width="375.08000000000004" height="187.77121000000005" fill="url(#cc5c6809-42b4-41fa-8740-c2a71d4f21ac)" mask="url(#c54a5c18-d74c-4d1f-9f88-01d627df9e59)" data-fill-palette-color="primary"></rect></svg><rect width="375.07953" height="187.77091000000001" fill="none" stroke="none" visibility="hidden"></rect></g></svg></g></svg>