<svg xmlns="http://www.w3.org/2000/svg" version="1.1" xmlns:xlink="http://www.w3.org/1999/xlink" xmlns:svgjs="http://svgjs.dev/svgjs" width="1500" height="469" viewBox="0 0 1500 469"><g transform="matrix(1,0,0,1,-0.9090909090911055,0.6129048340426095)"><svg viewBox="0 0 396 124" data-background-color="#ffffff" preserveAspectRatio="xMidYMid meet" height="469" width="1500" xmlns="http://www.w3.org/2000/svg" xmlns:xlink="http://www.w3.org/1999/xlink"><g id="tight-bounds" transform="matrix(1,0,0,1,0.24000000000003752,-0.1620473335208601)"><svg viewBox="0 0 395.5199999999999 124.32409466704172" height="124.32409466704172" width="395.5199999999999"><g><svg viewBox="0 0 716.8986428026589 225.3432815899866" height="124.32409466704172" width="395.5199999999999"><g transform="matrix(1,0,0,1,321.3786428026589,56.83057226467527)"><svg viewBox="0 0 395.52 111.68213706063605" height="111.68213706063605" width="395.52"><g id="textblocktransform"><svg viewBox="0 0 395.52 111.68213706063605" height="111.68213706063605" width="395.52" id="textblock"><g><svg viewBox="0 0 395.52 74.79155099577548" height="74.79155099577548" width="395.52"><g transform="matrix(1,0,0,1,0,0)"><svg width="395.52" viewBox="0 -35.75 248.54 47" height="74.79155099577548" data-palette-color="url(#93528b2e-2e1d-4918-88af-2dab1b3b1068)"></svg></g></svg></g><g transform="matrix(1,0,0,1,63.283199999999994,92.44804118865417)"><svg viewBox="0 0 268.9536 19.23409587198187" height="19.23409587198187" width="268.9536"><g transform="matrix(1,0,0,1,0,0)"><svg width="268.9536" viewBox="0.35 -39.65 706.06 50.5" height="19.23409587198187" data-palette-color="#ef5b2a"><path d="M11.75-35.25Q14.75-35.25 17.05-34.2 19.35-33.15 21.3-31.05L21.3-31.05 18.35-27.65Q16.8-29.05 15.33-29.75 13.85-30.45 12.2-30.45L12.2-30.45Q10.3-30.45 9.2-29.28 8.1-28.1 8.1-26.2L8.1-26.2Q8.1-24.3 9.25-23.1 10.4-21.9 13.75-20.6L13.75-20.6Q18.05-18.85 20.08-16.5 22.1-14.15 22.1-9.85L22.1-9.85Q22.1-6.9 20.75-4.48 19.4-2.05 16.88-0.65 14.35 0.75 11 0.75L11 0.75Q7.55 0.75 5-0.48 2.45-1.7 0.35-3.95L0.35-3.95 3.55-7.45Q5.35-5.85 7-5 8.65-4.15 10.6-4.15L10.6-4.15Q12.9-4.15 14.18-5.58 15.45-7 15.45-9.45L15.45-9.45Q15.45-11.6 14.33-12.98 13.2-14.35 10.15-15.5L10.15-15.5Q5.55-17.35 3.53-19.75 1.5-22.15 1.5-25.75L1.5-25.75Q1.5-28.5 2.83-30.65 4.15-32.8 6.5-34.02 8.85-35.25 11.75-35.25L11.75-35.25ZM38.45-27.15Q41.3-27.15 42.95-25.1 44.6-23.05 44.6-19.6L44.6-19.6 44.6 0 38.45 0 38.45-18.9Q38.45-20.8 37.92-21.63 37.4-22.45 36.4-22.45L36.4-22.45Q34.3-22.45 32.25-18.5L32.25-18.5 32.25 0 26.1 0 26.1-37 32.25-37.65 32.25-23.3Q33.5-25.25 34.97-26.2 36.45-27.15 38.45-27.15L38.45-27.15ZM59.55-27.15Q64.55-27.15 67.32-23.65 70.09-20.15 70.09-13.25L70.09-13.25Q70.09-6.65 67.3-2.95 64.5 0.75 59.55 0.75L59.55 0.75Q54.59 0.75 51.8-2.88 49-6.5 49-13.25L49-13.25Q49-19.95 51.8-23.55 54.59-27.15 59.55-27.15L59.55-27.15ZM59.55-22.5Q57.4-22.5 56.4-20.38 55.4-18.25 55.4-13.25L55.4-13.25Q55.4-8.2 56.4-6.08 57.4-3.95 59.55-3.95L59.55-3.95Q61.7-3.95 62.7-6.08 63.7-8.2 63.7-13.25L63.7-13.25Q63.7-18.3 62.7-20.4 61.7-22.5 59.55-22.5L59.55-22.5ZM86.84-27.15Q90.74-27.15 92.74-23.58 94.74-20 94.74-13.3L94.74-13.3Q94.74-6.8 92.47-3.03 90.19 0.75 86.14 0.75L86.14 0.75Q82.94 0.75 80.79-2.1L80.79-2.1 80.79 10.15 74.64 10.85 74.64-26.45 80.09-26.45 80.34-23.25Q81.64-25.25 83.24-26.2 84.84-27.15 86.84-27.15L86.84-27.15ZM84.49-3.95Q86.39-3.95 87.39-6.13 88.39-8.3 88.39-13.25L88.39-13.25Q88.39-18.45 87.54-20.5 86.69-22.55 84.89-22.55L84.89-22.55Q82.59-22.55 80.79-19.25L80.79-19.25 80.79-6.45Q82.39-3.95 84.49-3.95L84.49-3.95ZM131.24-26.45L136.94-26.45 132.39 0 124.89 0 121.94-20.85 119.04 0 111.59 0 106.94-26.45 112.89-26.45 115.59-4.6 118.94-26.45 125.19-26.45 128.39-4.6 131.24-26.45ZM140.44-26.45L146.59-26.45 146.59 0 140.44 0 140.44-26.45ZM143.49-39.65Q145.14-39.65 146.16-38.6 147.19-37.55 147.19-35.9L147.19-35.9Q147.19-34.3 146.16-33.25 145.14-32.2 143.49-32.2L143.49-32.2Q141.84-32.2 140.81-33.25 139.78-34.3 139.78-35.9L139.78-35.9Q139.78-37.55 140.81-38.6 141.84-39.65 143.49-39.65L143.49-39.65ZM163.43-5L165.58-1.2Q163.13 0.75 159.83 0.75L159.83 0.75Q156.38 0.75 154.58-1.23 152.78-3.2 152.78-6.6L152.78-6.6 152.78-22 149.68-22 149.68-26.45 152.78-26.45 152.78-32.3 158.93-33.05 158.93-26.45 163.93-26.45 163.33-22 158.93-22 158.93-6.6Q158.93-4.2 160.98-4.2L160.98-4.2Q161.63-4.2 162.13-4.38 162.63-4.55 163.43-5L163.43-5ZM180.48-27.15Q183.33-27.15 184.98-25.1 186.63-23.05 186.63-19.6L186.63-19.6 186.63 0 180.48 0 180.48-18.9Q180.48-20.8 179.96-21.63 179.43-22.45 178.43-22.45L178.43-22.45Q176.33-22.45 174.28-18.5L174.28-18.5 174.28 0 168.13 0 168.13-37 174.28-37.65 174.28-23.3Q175.53-25.25 177-26.2 178.48-27.15 180.48-27.15L180.48-27.15ZM217.08-34.55L223.33-34.55 215.33 0 207.38 0 199.08-34.55 205.53-34.55 211.43-5.6 217.08-34.55ZM226.07-26.45L232.22-26.45 232.22 0 226.07 0 226.07-26.45ZM229.12-39.65Q230.77-39.65 231.8-38.6 232.82-37.55 232.82-35.9L232.82-35.9Q232.82-34.3 231.8-33.25 230.77-32.2 229.12-32.2L229.12-32.2Q227.47-32.2 226.45-33.25 225.42-34.3 225.42-35.9L225.42-35.9Q225.42-37.55 226.45-38.6 227.47-39.65 229.12-39.65L229.12-39.65ZM245.27-27.15Q249.97-27.15 253.22-24.05L253.22-24.05 250.87-20.7Q249.47-21.7 248.22-22.2 246.97-22.7 245.67-22.7L245.67-22.7Q244.22-22.7 243.4-21.93 242.57-21.15 242.57-19.8L242.57-19.8Q242.57-18.45 243.5-17.63 244.42-16.8 247.22-15.7L247.22-15.7Q250.67-14.35 252.32-12.5 253.97-10.65 253.97-7.55L253.97-7.55Q253.97-3.7 251.27-1.48 248.57 0.75 244.42 0.75L244.42 0.75Q241.72 0.75 239.45-0.23 237.17-1.2 235.47-2.95L235.47-2.95 238.47-6.25Q241.27-3.8 244.17-3.8L244.17-3.8Q245.82-3.8 246.77-4.67 247.72-5.55 247.72-7.1L247.72-7.1Q247.72-8.25 247.32-8.97 246.92-9.7 245.92-10.33 244.92-10.95 242.92-11.7L242.92-11.7Q239.47-13.05 238-14.85 236.52-16.65 236.52-19.45L236.52-19.45Q236.52-22.8 238.9-24.98 241.27-27.15 245.27-27.15L245.27-27.15ZM257.82-26.45L263.97-26.45 263.97 0 257.82 0 257.82-26.45ZM260.87-39.65Q262.52-39.65 263.54-38.6 264.57-37.55 264.57-35.9L264.57-35.9Q264.57-34.3 263.54-33.25 262.52-32.2 260.87-32.2L260.87-32.2Q259.22-32.2 258.19-33.25 257.17-34.3 257.17-35.9L257.17-35.9Q257.17-37.55 258.19-38.6 259.22-39.65 260.87-39.65L260.87-39.65ZM279.07-27.15Q284.07-27.15 286.84-23.65 289.62-20.15 289.62-13.25L289.62-13.25Q289.62-6.65 286.82-2.95 284.02 0.75 279.07 0.75L279.07 0.75Q274.12 0.75 271.32-2.88 268.52-6.5 268.52-13.25L268.52-13.25Q268.52-19.95 271.32-23.55 274.12-27.15 279.07-27.15L279.07-27.15ZM279.07-22.5Q276.92-22.5 275.92-20.38 274.92-18.25 274.92-13.25L274.92-13.25Q274.92-8.2 275.92-6.08 276.92-3.95 279.07-3.95L279.07-3.95Q281.22-3.95 282.22-6.08 283.22-8.2 283.22-13.25L283.22-13.25Q283.22-18.3 282.22-20.4 281.22-22.5 279.07-22.5L279.07-22.5ZM306.51-27.15Q309.36-27.15 311.01-25.1 312.66-23.05 312.66-19.6L312.66-19.6 312.66 0 306.51 0 306.51-18.9Q306.51-20.8 305.99-21.63 305.46-22.45 304.46-22.45L304.46-22.45Q302.36-22.45 300.31-18.5L300.31-18.5 300.31 0 294.16 0 294.16-26.45 299.51-26.45 299.96-23Q301.31-25.1 302.84-26.13 304.36-27.15 306.51-27.15L306.51-27.15ZM320.61-7.05Q322.21-7.05 323.24-5.98 324.26-4.9 324.26-3.25L324.26-3.25Q324.26-2.55 324.04-1.78 323.81-1 323.46-0.08 323.11 0.85 323.01 1.2L323.01 1.2 320.36 8.55 316.91 8.55 318.71 0.1Q316.91-1.2 316.91-3.2L316.91-3.2Q316.91-4.85 317.96-5.95 319.01-7.05 320.61-7.05L320.61-7.05ZM346.36-34.55Q350.71-34.55 353.88-33.23 357.06-31.9 359.03-28.13 361.01-24.35 361.01-17.45L361.01-17.45Q361.01-7.7 357.13-3.85 353.26 0 347.01 0L347.01 0 338.66 0 338.66-34.55 346.36-34.55ZM347.31-29.8L345.01-29.8 345.01-4.75 347.36-4.75Q349.61-4.75 351.13-5.8 352.66-6.85 353.53-9.65 354.41-12.45 354.41-17.45L354.41-17.45Q354.41-22.55 353.48-25.25 352.56-27.95 351.03-28.88 349.51-29.8 347.31-29.8L347.31-29.8ZM377.25-27.1Q378.4-27.1 379.3-26.75L379.3-26.75 378.3-20.85Q377.3-21.1 376.45-21.1L376.45-21.1Q374.55-21.1 373.45-19.45 372.35-17.8 371.75-14.55L371.75-14.55 371.75 0 365.6 0 365.6-26.45 370.95-26.45 371.4-21.85Q373.25-27.1 377.25-27.1L377.25-27.1ZM401-13.85Q401-13.4 400.85-11.3L400.85-11.3 387.2-11.3Q387.4-7.2 388.63-5.58 389.85-3.95 392.1-3.95L392.1-3.95Q393.65-3.95 394.9-4.48 396.15-5 397.6-6.15L397.6-6.15 400.15-2.65Q396.65 0.75 391.75 0.75L391.75 0.75Q386.55 0.75 383.78-2.85 381-6.45 381-13L381-13Q381-19.55 383.65-23.35 386.3-27.15 391.15-27.15L391.15-27.15Q395.8-27.15 398.4-23.78 401-20.4 401-13.85L401-13.85ZM395-15.3L395-15.65Q395-19.4 394.1-21.13 393.2-22.85 391.2-22.85L391.2-22.85Q389.35-22.85 388.38-21.18 387.4-19.5 387.2-15.3L387.2-15.3 395-15.3ZM412.65-27.15Q417.35-27.15 420.6-24.05L420.6-24.05 418.25-20.7Q416.85-21.7 415.6-22.2 414.35-22.7 413.05-22.7L413.05-22.7Q411.6-22.7 410.77-21.93 409.95-21.15 409.95-19.8L409.95-19.8Q409.95-18.45 410.87-17.63 411.8-16.8 414.6-15.7L414.6-15.7Q418.05-14.35 419.7-12.5 421.35-10.65 421.35-7.55L421.35-7.55Q421.35-3.7 418.65-1.48 415.95 0.75 411.8 0.75L411.8 0.75Q409.1 0.75 406.82-0.23 404.55-1.2 402.85-2.95L402.85-2.95 405.85-6.25Q408.65-3.8 411.55-3.8L411.55-3.8Q413.2-3.8 414.15-4.67 415.1-5.55 415.1-7.1L415.1-7.1Q415.1-8.25 414.7-8.97 414.3-9.7 413.3-10.33 412.3-10.95 410.3-11.7L410.3-11.7Q406.85-13.05 405.37-14.85 403.9-16.65 403.9-19.45L403.9-19.45Q403.9-22.8 406.27-24.98 408.65-27.15 412.65-27.15L412.65-27.15ZM432.55-27.15Q437.25-27.15 440.5-24.05L440.5-24.05 438.15-20.7Q436.75-21.7 435.5-22.2 434.25-22.7 432.95-22.7L432.95-22.7Q431.5-22.7 430.67-21.93 429.85-21.15 429.85-19.8L429.85-19.8Q429.85-18.45 430.77-17.63 431.7-16.8 434.5-15.7L434.5-15.7Q437.95-14.35 439.6-12.5 441.25-10.65 441.25-7.55L441.25-7.55Q441.25-3.7 438.55-1.48 435.85 0.75 431.7 0.75L431.7 0.75Q429 0.75 426.72-0.23 424.45-1.2 422.75-2.95L422.75-2.95 425.75-6.25Q428.55-3.8 431.45-3.8L431.45-3.8Q433.1-3.8 434.05-4.67 435-5.55 435-7.1L435-7.1Q435-8.25 434.6-8.97 434.2-9.7 433.2-10.33 432.2-10.95 430.2-11.7L430.2-11.7Q426.75-13.05 425.27-14.85 423.8-16.65 423.8-19.45L423.8-19.45Q423.8-22.8 426.17-24.98 428.55-27.15 432.55-27.15L432.55-27.15ZM476.99-26.45L482.69-26.45 478.14 0 470.64 0 467.69-20.85 464.79 0 457.34 0 452.69-26.45 458.64-26.45 461.34-4.6 464.69-26.45 470.94-26.45 474.14-4.6 476.99-26.45ZM486.19-26.45L492.34-26.45 492.34 0 486.19 0 486.19-26.45ZM489.24-39.65Q490.89-39.65 491.91-38.6 492.94-37.55 492.94-35.9L492.94-35.9Q492.94-34.3 491.91-33.25 490.89-32.2 489.24-32.2L489.24-32.2Q487.59-32.2 486.56-33.25 485.54-34.3 485.54-35.9L485.54-35.9Q485.54-37.55 486.56-38.6 487.59-39.65 489.24-39.65L489.24-39.65ZM509.19-5L511.34-1.2Q508.89 0.75 505.59 0.75L505.59 0.75Q502.14 0.75 500.34-1.23 498.54-3.2 498.54-6.6L498.54-6.6 498.54-22 495.44-22 495.44-26.45 498.54-26.45 498.54-32.3 504.69-33.05 504.69-26.45 509.69-26.45 509.09-22 504.69-22 504.69-6.6Q504.69-4.2 506.74-4.2L506.74-4.2Q507.39-4.2 507.89-4.38 508.39-4.55 509.19-5L509.19-5ZM526.23-27.15Q529.08-27.15 530.73-25.1 532.38-23.05 532.38-19.6L532.38-19.6 532.38 0 526.23 0 526.23-18.9Q526.23-20.8 525.71-21.63 525.18-22.45 524.18-22.45L524.18-22.45Q522.08-22.45 520.03-18.5L520.03-18.5 520.03 0 513.88 0 513.88-37 520.03-37.65 520.03-23.3Q521.28-25.25 522.76-26.2 524.23-27.15 526.23-27.15L526.23-27.15ZM547.93-34.55L554.28-34.55 554.28 0 547.93 0 547.93-34.55ZM572.48-27.15Q575.32-27.15 576.98-25.1 578.63-23.05 578.63-19.6L578.63-19.6 578.63 0 572.48 0 572.48-18.9Q572.48-20.8 571.95-21.63 571.42-22.45 570.42-22.45L570.42-22.45Q568.32-22.45 566.27-18.5L566.27-18.5 566.27 0 560.13 0 560.13-26.45 565.48-26.45 565.92-23Q567.27-25.1 568.8-26.13 570.32-27.15 572.48-27.15L572.48-27.15ZM595.32-5L597.47-1.2Q595.02 0.75 591.72 0.75L591.72 0.75Q588.27 0.75 586.47-1.23 584.67-3.2 584.67-6.6L584.67-6.6 584.67-22 581.57-22 581.57-26.45 584.67-26.45 584.67-32.3 590.82-33.05 590.82-26.45 595.82-26.45 595.22-22 590.82-22 590.82-6.6Q590.82-4.2 592.87-4.2L592.87-4.2Q593.52-4.2 594.02-4.38 594.52-4.55 595.32-5L595.32-5ZM618.17-26.45L618.17 0 612.82 0 612.52-3.35Q611.27-1.3 609.72-0.28 608.17 0.75 606.12 0.75L606.12 0.75Q603.22 0.75 601.54-1.3 599.87-3.35 599.87-6.65L599.87-6.65 599.87-26.45 606.02-26.45 606.02-7Q606.02-3.9 608.12-3.9L608.12-3.9Q609.32-3.9 610.27-4.83 611.22-5.75 612.02-7.45L612.02-7.45 612.02-26.45 618.17-26.45ZM623.87-26.45L630.02-26.45 630.02 0 623.87 0 623.87-26.45ZM626.92-39.65Q628.57-39.65 629.59-38.6 630.62-37.55 630.62-35.9L630.62-35.9Q630.62-34.3 629.59-33.25 628.57-32.2 626.92-32.2L626.92-32.2Q625.27-32.2 624.24-33.25 623.22-34.3 623.22-35.9L623.22-35.9Q623.22-37.55 624.24-38.6 625.27-39.65 626.92-39.65L626.92-39.65ZM646.86-5L649.01-1.2Q646.56 0.75 643.26 0.75L643.26 0.75Q639.81 0.75 638.01-1.23 636.21-3.2 636.21-6.6L636.21-6.6 636.21-22 633.11-22 633.11-26.45 636.21-26.45 636.21-32.3 642.36-33.05 642.36-26.45 647.36-26.45 646.76-22 642.36-22 642.36-6.6Q642.36-4.2 644.41-4.2L644.41-4.2Q645.06-4.2 645.56-4.38 646.06-4.55 646.86-5L646.86-5ZM651.56-26.45L657.71-26.45 657.71 0 651.56 0 651.56-26.45ZM654.61-39.65Q656.26-39.65 657.29-38.6 658.31-37.55 658.31-35.9L658.31-35.9Q658.31-34.3 657.29-33.25 656.26-32.2 654.61-32.2L654.61-32.2Q652.96-32.2 651.94-33.25 650.91-34.3 650.91-35.9L650.91-35.9Q650.91-37.55 651.94-38.6 652.96-39.65 654.61-39.65L654.61-39.65ZM672.81-27.15Q677.81-27.15 680.58-23.65 683.36-20.15 683.36-13.25L683.36-13.25Q683.36-6.65 680.56-2.95 677.76 0.75 672.81 0.75L672.81 0.75Q667.86 0.75 665.06-2.88 662.26-6.5 662.26-13.25L662.26-13.25Q662.26-19.95 665.06-23.55 667.86-27.15 672.81-27.15L672.81-27.15ZM672.81-22.5Q670.66-22.5 669.66-20.38 668.66-18.25 668.66-13.25L668.66-13.25Q668.66-8.2 669.66-6.08 670.66-3.95 672.81-3.95L672.81-3.95Q674.96-3.95 675.96-6.08 676.96-8.2 676.96-13.25L676.96-13.25Q676.96-18.3 675.96-20.4 674.96-22.5 672.81-22.5L672.81-22.5ZM700.26-27.15Q703.11-27.15 704.76-25.1 706.41-23.05 706.41-19.6L706.41-19.6 706.41 0 700.26 0 700.26-18.9Q700.26-20.8 699.73-21.63 699.21-22.45 698.21-22.45L698.21-22.45Q696.11-22.45 694.06-18.5L694.06-18.5 694.06 0 687.91 0 687.91-26.45 693.26-26.45 693.71-23Q695.06-25.1 696.58-26.13 698.11-27.15 700.26-27.15L700.26-27.15Z" opacity="1" transform="matrix(1,0,0,1,0,0)" fill="#ef5b2a" class="slogan-text-1" data-fill-palette-color="secondary" id="text-1"></path></svg></g></svg></g></svg></g></svg></g><g><svg viewBox="0 0 303.7221526097802 225.3432815899866" height="225.3432815899866" width="303.7221526097802"><g><svg xmlns="http://www.w3.org/2000/svg" xmlns:xlink="http://www.w3.org/1999/xlink" version="1.1" x="0" y="0" viewBox="5.132408955589326 16.710673764624296 89.73559104441067 66.5783262353757" enable-background="new 0 0 100 100" xml:space="preserve" height="225.3432815899866" width="303.7221526097802" class="icon-icon-0" data-fill-palette-color="accent" id="icon-0"><g fill="#301c3b" data-fill-palette-color="accent"><g fill="#301c3b" data-fill-palette-color="accent"><path fill-rule="evenodd" clip-rule="evenodd" d="M74.326 68.963c-0.798-0.145-1.9-0.323-2.992-0.555-0.341-0.071-0.667-0.255-0.974-0.432-1.325-0.767-1.746-1.954-0.93-3.247 0.693-1.103 1.573-2.117 2.501-3.037 1.594-1.582 3.297-3.057 4.94-4.588 4.552-4.241 7.812-9.313 9.824-15.2 0.328-0.958 0.706-1.908 1.158-2.812 0.898-1.788 2-1.927 3.344-0.457 1.32 1.445 2.083 3.202 2.522 5.069 1.868 7.964-0.336 14.692-6.371 20.143-2.905 2.626-6.373 4.208-10.25 4.836C76.294 68.814 75.471 68.851 74.326 68.963z" fill="#301c3b" data-fill-palette-color="accent"></path><path fill-rule="evenodd" clip-rule="evenodd" d="M92.634 38.514c-0.653-1.049-1.292-2.153-2.012-3.201-0.739-1.076-1.61-2.049-2.715-2.778-1.506-0.995-2.472-0.662-2.837 1.085-0.302 1.443-0.484 2.917-0.636 4.387-0.803 7.851-4.379 14.12-10.652 18.884-3.111 2.361-6.535 4.188-9.985 5.977-1.898 0.982-3.829 1.915-5.486 3.297-0.393 0.328-0.756 0.713-1.059 1.125-0.763 1.045-0.708 2.198 0.128 3.191 1.074 1.28 2.537 1.934 4.071 2.445 2.922 0.974 5.939 1.181 8.983 0.946 4.886-0.38 9.429-1.859 13.513-4.59 5.735-3.835 9.416-9.074 10.688-15.92 0.022-0.119 0.062-0.233 0.094-0.349 0.047 0.01 0.093 0.02 0.139 0.029-0.181 0.872-0.324 1.753-0.547 2.613-2.235 8.58-7.57 14.593-15.453 18.412-5.266 2.551-10.866 3.581-16.712 3.264-3.956-0.216-7.766-1.03-11.323-2.828-1.505-0.76-2.909-1.677-3.968-3.024-0.655-0.834-1.134-1.74-0.875-2.858 0.202-0.87 0.787-1.468 1.482-1.96 1.446-1.021 3.11-1.567 4.779-2.079 3.403-1.045 6.838-1.997 10.215-3.117 3.978-1.317 7.716-3.146 11.027-5.763 4.653-3.679 7.529-8.396 8.347-14.309 0.316-2.291 0.267-4.588 0.09-6.89-0.128-1.651-0.202-3.308-0.271-4.962-0.012-0.289 0.091-0.601 0.205-0.875 0.252-0.599 0.808-0.91 1.45-0.637 0.891 0.377 1.806 0.802 2.549 1.404 3.007 2.436 5.117 5.572 6.777 9.031C92.651 38.49 92.632 38.53 92.634 38.514z" fill="#301c3b" data-fill-palette-color="accent"></path><path fill-rule="evenodd" clip-rule="evenodd" d="M43.539 16.952c-1.064 0.275-2.123 0.514-3.159 0.832-0.556 0.169-1.102 0.425-1.59 0.738-0.281 0.179-0.594 0.55-0.597 0.837-0.001 0.221 0.426 0.553 0.723 0.647 0.964 0.307 1.947 0.575 2.939 0.775 4.686 0.946 9.3 2.127 13.712 4.012 5.238 2.238 9.98 5.27 14.37 8.877 0.411 0.338 0.821 0.678 1.19 1.075-1.092-0.709-2.184-1.42-3.275-2.129-4.513-2.929-9.213-5.479-14.349-7.164-5.083-1.667-10.277-2.512-15.63-2.206-2.663 0.152-5.274 0.613-7.754 1.648-4.807 2.005-7.589 5.706-8.757 10.675-1.146 4.878-0.354 9.594 1.414 14.196 0.062 0.159 0.12 0.32 0.18 0.48-0.048 0.021-0.096 0.042-0.143 0.062-0.599-1.321-1.237-2.628-1.789-3.97-1.365-3.326-2.043-6.811-2.353-10.381-0.086-1.01-0.214-2.024-0.43-3.013-0.267-1.221-0.986-1.602-2.189-1.245-1.295 0.385-2.363 1.169-3.342 2.059-3.771 3.432-5.965 7.731-6.772 12.729-1.026 6.351 0.45 12.201 3.736 17.652 0.108 0.182 0.216 0.36 0.263 0.589-0.053-0.064-0.112-0.125-0.158-0.194-2.564-3.895-4.199-8.132-4.564-12.798-0.51-6.521 1.353-12.361 5.282-17.558 2.842-3.758 6.466-6.62 10.478-9.019 4.056-2.426 8.189-4.7 12.683-6.241 3.086-1.059 6.281-1.576 9.505-1.965C43.285 16.939 43.411 16.952 43.539 16.952z" fill="#301c3b" data-fill-palette-color="accent"></path><path fill-rule="evenodd" clip-rule="evenodd" d="M61.55 61.343c-2.16 0.432-4.308 0.96-6.484 1.273-3.546 0.512-7.112 0.87-10.667 1.316-1.714 0.217-3.426 0.478-5.038 1.151-2.632 1.103-3.239 3.024-1.707 5.444 1.121 1.772 2.715 3.062 4.453 4.177 3.482 2.239 7.323 3.559 11.365 4.323 3.829 0.723 7.688 0.867 11.56 0.423 6.403-0.734 12.298-2.837 17.522-6.675 0.137-0.102 0.28-0.188 0.421-0.283 0.027 0.041 0.057 0.079 0.085 0.119-0.994 0.725-1.971 1.477-2.987 2.169-4.866 3.32-10.242 5.348-16.062 6.188-8.425 1.216-16.525 0.121-24.223-3.575-3.16-1.518-6.029-3.465-8.351-6.133-1.098-1.261-2.023-2.628-2.404-4.294-0.399-1.745 0.25-3.111 1.865-3.873 1.1-0.519 2.284-0.745 3.479-0.742 2.764 0.002 5.529 0.042 8.29 0.152 4.246 0.17 8.493 0.326 12.723-0.194 2.06-0.255 4.099-0.687 6.146-1.039C61.541 61.295 61.546 61.319 61.55 61.343z" fill="#301c3b" data-fill-palette-color="accent"></path><path fill-rule="evenodd" clip-rule="evenodd" d="M65.631 81.426c-1.752 0.377-3.496 0.797-5.258 1.123-4.186 0.775-8.406 0.904-12.628 0.417-8.404-0.967-16.037-3.862-22.574-9.342-3.041-2.547-5.567-5.528-7.092-9.246-0.675-1.647-1.105-3.351-0.79-5.159 0.323-1.852 1.667-3.017 3.546-3.101 1.593-0.071 3.128 0.24 4.623 0.725 3.147 1.024 6.268 2.136 9.419 3.148 2.197 0.705 4.428 1.307 6.489 1.908-1.008-0.179-2.186-0.391-3.364-0.598-2.822-0.501-5.641-1.03-8.47-1.488-1.357-0.22-2.733-0.254-4.098 0.041-2.114 0.458-3.188 2.023-2.868 4.176 0.316 2.126 1.326 3.934 2.604 5.604 2.893 3.78 6.67 6.446 10.891 8.527 4.302 2.122 8.855 3.419 13.616 3.999 5.237 0.636 10.424 0.396 15.559-0.841 0.119-0.027 0.243-0.036 0.364-0.054C65.611 81.318 65.621 81.372 65.631 81.426z" fill="#301c3b" data-fill-palette-color="accent"></path><path fill-rule="evenodd" clip-rule="evenodd" d="M44.913 83.289c-1.744-0.25-3.499-0.436-5.228-0.76-6.602-1.23-12.641-3.782-17.982-7.884-4.446-3.413-8-7.559-10.145-12.798-1.127-2.755-1.751-5.611-1.436-8.611 0.153-1.453 0.517-2.843 1.405-4.04 1.021-1.377 2.398-1.835 4.061-1.358 1.625 0.468 2.977 1.436 4.318 2.41 3.084 2.243 6.149 4.512 9.235 6.751 0.597 0.434 1.252 0.786 1.841 1.249-0.658-0.332-1.319-0.661-1.976-0.996-2.666-1.357-5.312-2.758-8.01-4.048-0.95-0.456-2.006-0.749-3.046-0.94-2.829-0.517-4.246 1.267-4.625 3.479-0.419 2.452 0.105 4.788 1.01 7.053 1.531 3.833 3.972 7.034 6.996 9.795 6.155 5.619 13.456 8.838 21.624 10.209 0.66 0.113 1.324 0.203 1.986 0.305C44.931 83.166 44.922 83.228 44.913 83.289z" fill="#301c3b" data-fill-palette-color="accent"></path><path fill-rule="evenodd" clip-rule="evenodd" d="M26.441 78.456c-1.506-0.831-3.045-1.606-4.512-2.503-5.457-3.332-9.819-7.72-12.717-13.471-2.046-4.059-3.056-8.358-2.717-12.915 0.258-3.476 1.25-6.717 3.425-9.511 0.694-0.892 1.497-1.679 2.549-2.156 1.16-0.525 2.181-0.4 3.013 0.559 0.681 0.787 1.256 1.682 1.777 2.587 1.519 2.638 2.908 5.354 4.503 7.943 1.015 1.646 2.305 3.122 3.47 4.674 0.059 0.076 0.114 0.153 0.102 0.294-0.189-0.177-0.387-0.344-0.563-0.531-2.334-2.506-4.648-5.03-7.004-7.515-0.745-0.786-1.543-1.546-2.419-2.176-1.792-1.29-3.593-0.977-4.987 0.751-1.247 1.542-1.877 3.349-2.174 5.273-0.769 4.979 0.408 9.599 2.748 13.957 3.153 5.875 7.855 10.214 13.588 13.504 0.662 0.38 1.343 0.73 2.015 1.093C26.504 78.36 26.473 78.408 26.441 78.456z" fill="#301c3b" data-fill-palette-color="accent"></path><path fill-rule="evenodd" clip-rule="evenodd" d="M21.966 46.788c-0.077-0.734-0.177-1.468-0.226-2.205-0.283-4.324 0.528-8.38 3.043-11.989 2.307-3.308 5.52-5.363 9.319-6.547 3.768-1.173 7.627-1.387 11.538-1.024 6.396 0.592 12.308 2.747 18.021 5.549 0.541 0.266 1.083 0.533 1.594 0.866-1.375-0.504-2.749-1.01-4.123-1.514-3.6-1.318-7.243-2.485-11.039-3.105-5.445-0.89-10.847-0.888-16.077 1.124-6.586 2.533-10.511 7.299-11.675 14.286-0.126 0.754-0.19 1.524-0.229 2.288-0.038 0.748-0.008 1.498-0.008 2.247C22.059 46.771 22.012 46.78 21.966 46.788z" fill="#301c3b" data-fill-palette-color="accent"></path><path fill-rule="evenodd" clip-rule="evenodd" d="M75.267 38.73c-0.522-0.592-1.046-1.183-1.566-1.775-6.062-6.909-13.469-11.91-21.917-15.434-1.429-0.596-2.843-1.229-4.243-1.888-0.509-0.24-0.994-0.566-1.425-0.93-0.544-0.461-0.485-1.019 0.186-1.306 0.727-0.311 1.517-0.614 2.291-0.645 2.044-0.083 4.094-0.017 6.143-0.007 0.06 0 0.121 0.035 0.307 0.091-0.725 0.07-1.323 0.093-1.905 0.194-0.497 0.086-1.1 0.137-1.261 0.73-0.161 0.594 0.304 0.986 0.719 1.269 1.542 1.054 3.09 2.103 4.682 3.078 4.7 2.877 9.134 6.088 12.935 10.112 1.816 1.923 3.463 3.979 4.943 6.168 0.065 0.097 0.118 0.201 0.177 0.302C75.309 38.703 75.287 38.717 75.267 38.73z" fill="#301c3b" data-fill-palette-color="accent"></path><path fill-rule="evenodd" clip-rule="evenodd" d="M81.998 26.127c-0.353-0.185-0.695-0.394-1.062-0.549-0.423-0.179-0.858-0.351-1.305-0.456-0.975-0.229-1.585 0.214-1.502 1.216 0.092 1.074 0.342 2.138 0.565 3.197 0.522 2.47 1.252 4.911 1.576 7.405 0.924 7.096-1.089 13.205-6.565 18.001 0.246-0.251 0.496-0.496 0.736-0.754 0.257-0.271 0.516-0.544 0.755-0.83 3.028-3.667 4.252-7.914 4.035-12.619-0.187-3.998-1.443-7.711-2.998-11.348-0.616-1.438-1.203-2.891-1.774-4.347-0.142-0.359-0.211-0.757-0.251-1.143-0.082-0.8 0.356-1.286 1.159-1.227 0.508 0.037 1.024 0.157 1.503 0.334C78.772 23.713 80.395 24.906 81.998 26.127z" fill="#301c3b" data-fill-palette-color="accent"></path><path fill-rule="evenodd" clip-rule="evenodd" d="M77.751 43.611c-1.376-4.173-3.517-7.787-6.17-11.111-2.526-3.166-5.467-5.913-8.606-8.458-1.51-1.224-3.026-2.438-4.517-3.685-0.447-0.374-0.858-0.811-1.211-1.275-0.618-0.814-0.389-1.431 0.615-1.609 0.625-0.11 1.289-0.171 1.911-0.083 1.462 0.206 2.908 0.513 4.36 0.782 0.079 0.015 0.153 0.057 0.339 0.129-0.69 0-1.262-0.045-1.824 0.01-0.904 0.089-1.205 0.626-0.729 1.407 0.422 0.693 0.935 1.348 1.49 1.943 2.08 2.229 4.267 4.362 6.28 6.65 3.594 4.081 6.42 8.621 7.827 13.942 0.095 0.361 0.172 0.726 0.251 1.09C77.779 43.394 77.763 43.448 77.751 43.611z" fill="#301c3b" data-fill-palette-color="accent"></path><path fill-rule="evenodd" clip-rule="evenodd" d="M77.906 48.028c0.035-0.298 0.076-0.596 0.104-0.896 0.42-4.531-0.779-8.716-2.741-12.735-1.65-3.385-3.87-6.395-6.187-9.341-0.781-0.994-1.548-2.003-2.271-3.039-0.312-0.446-0.549-0.96-0.73-1.476-0.209-0.586 0.073-1.078 0.688-1.132 0.628-0.055 1.303-0.066 1.896 0.108 1.624 0.477 3.216 1.061 4.776 1.704-0.678-0.115-1.353-0.292-2.035-0.33-0.942-0.053-1.365 0.466-1.023 1.356 0.414 1.072 0.931 2.117 1.513 3.108 1.677 2.856 3.42 5.674 4.663 8.761 1.331 3.308 2.156 6.718 1.961 10.309-0.065 1.213-0.284 2.418-0.435 3.626C78.026 48.045 77.966 48.037 77.906 48.028z" fill="#301c3b" data-fill-palette-color="accent"></path><path fill-rule="evenodd" clip-rule="evenodd" d="M22.331 43.36c0.306-1.013 0.555-2.047 0.925-3.036 2.283-6.102 6.735-9.877 12.841-11.822 3.4-1.083 6.903-1.393 10.457-1.234 3.721 0.167 7.351 0.881 10.954 1.77 0.095 0.024 0.186 0.074 0.394 0.159-1.729-0.234-3.329-0.464-4.934-0.667-5.219-0.657-10.42-0.796-15.543 0.669-7.35 2.103-12.439 6.627-14.863 13.977-0.026 0.077-0.053 0.153-0.079 0.229C22.432 43.392 22.381 43.375 22.331 43.36z" fill="#301c3b" data-fill-palette-color="accent"></path><path fill-rule="evenodd" clip-rule="evenodd" d="M48.016 28.454c-2.662 0.242-5.287 0.608-7.878 1.205-5.475 1.26-10.307 3.687-14.169 7.856-0.308 0.333-0.6 0.678-0.9 1.017-0.034-0.029-0.069-0.058-0.104-0.087 0.527-0.634 1.031-1.288 1.584-1.898 3.133-3.454 7.043-5.619 11.497-6.861 3.181-0.888 6.44-1.188 9.727-1.261C47.854 28.424 47.935 28.444 48.016 28.454z" fill="#301c3b" data-fill-palette-color="accent"></path><path fill-rule="evenodd" clip-rule="evenodd" d="M14.697 28.899c-0.656 0.67-1.311 1.341-2.005 2.051 0.717-0.694 1.396-1.35 2.074-2.006C14.743 28.929 14.719 28.915 14.697 28.899z" fill="#301c3b" data-fill-palette-color="accent"></path></g></g></svg></g></svg></g></svg></g><defs></defs><mask id="1986bf23-8834-4930-9a77-53bd802fc87d"><g id="SvgjsG1996"><svg viewBox="0 0 395.5199999999999 124.32409466704172" height="124.32409466704172" width="395.5199999999999"><g><svg viewBox="0 0 716.8986428026589 225.3432815899866" height="124.32409466704172" width="395.5199999999999"><g transform="matrix(1,0,0,1,321.3786428026589,56.83057226467527)"><svg viewBox="0 0 395.52 111.68213706063605" height="111.68213706063605" width="395.52"><g id="SvgjsG1995"><svg viewBox="0 0 395.52 111.68213706063605" height="111.68213706063605" width="395.52" id="SvgjsSvg1994"><g><svg viewBox="0 0 395.52 74.79155099577548" height="74.79155099577548" width="395.52"><g transform="matrix(1,0,0,1,0,0)"><svg width="395.52" viewBox="0 -35.75 248.54 47" height="74.79155099577548" data-palette-color="url(#93528b2e-2e1d-4918-88af-2dab1b3b1068)"><path d="M28.45 0L16.1 0 0-35.75 8.7-35.75 21.95-6.25 22.6-6.25 35.85-35.75 44.55-35.75 28.45 0ZM54.55 0L47.3 0 47.3-25.75 54.55-25.75 54.55 0ZM54.6-30L47.25-30 47.25-35.65 54.6-35.65 54.6-30ZM85 0.25L59.2 0.25 59.2-5.5 83.7-5.5Q85.8-5.5 85.8-7.85L85.8-7.85Q85.8-10.15 83.7-10.15L83.7-10.15 67.85-10.15Q63.4-10.15 61.1-12.18 58.8-14.2 58.8-18L58.8-18Q58.8-21.85 61.12-23.93 63.45-26 67.85-26L67.85-26 90.65-26 90.65-20.25 68.2-20.25Q66.05-20.25 66.05-18.15L66.05-18.15Q66.05-17.1 66.65-16.5 67.25-15.9 68.2-15.9L68.2-15.9 85-15.9Q88.9-15.9 90.97-13.88 93.05-11.85 93.05-8L93.05-8Q93.05-4.1 90.95-1.93 88.85 0.25 85 0.25L85 0.25ZM119.49 0L105.49 0Q101.09 0 99.07-2.2 97.04-4.4 97.04-7.9L97.04-7.9 97.04-25.75 104.29-25.75 104.29-8.75Q104.29-5.75 107.29-5.75L107.29-5.75 117.69-5.75Q120.69-5.75 120.69-8.75L120.69-8.75 120.69-25.75 127.94-25.75 127.94-7.9Q127.94-4.4 125.92-2.2 123.89 0 119.49 0L119.49 0ZM165.04-0.05L133.94 0 133.94-35.65 164.04-35.75Q169.99-35.75 172.87-33.27 175.74-30.8 175.74-25.85L175.74-25.85Q175.74-20.9 172.44-18.6L172.44-18.6Q174.64-17.4 175.69-15.43 176.74-13.45 176.74-10.35L176.74-10.35Q176.74-5.3 173.87-2.68 170.99-0.05 165.04-0.05L165.04-0.05ZM163.09-29.35L163.09-29.35 141.94-29.35 141.94-21.35 163.09-21.35Q167.64-21.35 167.64-25.45L167.64-25.45Q167.64-29.35 163.09-29.35ZM164.09-14.95L164.09-14.95 141.94-14.95 141.94-6.45 164.09-6.45Q168.64-6.45 168.64-10.75L168.64-10.75Q168.64-14.95 164.09-14.95ZM203.69 0L189.69 0Q185.29 0 183.26-2.2 181.24-4.4 181.24-7.9L181.24-7.9 181.24-25.75 188.49-25.75 188.49-8.75Q188.49-5.75 191.49-5.75L191.49-5.75 201.89-5.75Q204.89-5.75 204.89-8.75L204.89-8.75 204.89-25.75 212.14-25.75 212.14-7.9Q212.14-4.4 210.11-2.2 208.09 0 203.69 0L203.69 0ZM240.09 11.25L223.19 11.25 223.19 5.5 238.29 5.5Q241.29 5.5 241.29 2.45L241.29 2.45 241.29 0 225.84 0Q221.44 0 219.41-2.2 217.39-4.4 217.39-7.9L217.39-7.9 217.39-25.75 224.64-25.75 224.64-8.75Q224.64-5.75 227.64-5.75L227.64-5.75 241.04-5.75 241.04-25.75 248.54-25.75 248.54 3.35Q248.54 6.9 246.49 9.08 244.44 11.25 240.09 11.25L240.09 11.25Z" opacity="1" transform="matrix(1,0,0,1,0,0)" fill="white" class="wordmark-text-0" id="SvgjsPath1993"></path></svg></g></svg></g><g transform="matrix(1,0,0,1,63.283199999999994,92.44804118865417)"><svg viewBox="0 0 268.9536 19.23409587198187" height="19.23409587198187" width="268.9536"><g transform="matrix(1,0,0,1,0,0)"><svg width="268.9536" viewBox="0.35 -39.65 706.06 50.5" height="19.23409587198187" data-palette-color="#ef5b2a"><path d="M11.75-35.25Q14.75-35.25 17.05-34.2 19.35-33.15 21.3-31.05L21.3-31.05 18.35-27.65Q16.8-29.05 15.33-29.75 13.85-30.45 12.2-30.45L12.2-30.45Q10.3-30.45 9.2-29.28 8.1-28.1 8.1-26.2L8.1-26.2Q8.1-24.3 9.25-23.1 10.4-21.9 13.75-20.6L13.75-20.6Q18.05-18.85 20.08-16.5 22.1-14.15 22.1-9.85L22.1-9.85Q22.1-6.9 20.75-4.48 19.4-2.05 16.88-0.65 14.35 0.75 11 0.75L11 0.75Q7.55 0.75 5-0.48 2.45-1.7 0.35-3.95L0.35-3.95 3.55-7.45Q5.35-5.85 7-5 8.65-4.15 10.6-4.15L10.6-4.15Q12.9-4.15 14.18-5.58 15.45-7 15.45-9.45L15.45-9.45Q15.45-11.6 14.33-12.98 13.2-14.35 10.15-15.5L10.15-15.5Q5.55-17.35 3.53-19.75 1.5-22.15 1.5-25.75L1.5-25.75Q1.5-28.5 2.83-30.65 4.15-32.8 6.5-34.02 8.85-35.25 11.75-35.25L11.75-35.25ZM38.45-27.15Q41.3-27.15 42.95-25.1 44.6-23.05 44.6-19.6L44.6-19.6 44.6 0 38.45 0 38.45-18.9Q38.45-20.8 37.92-21.63 37.4-22.45 36.4-22.45L36.4-22.45Q34.3-22.45 32.25-18.5L32.25-18.5 32.25 0 26.1 0 26.1-37 32.25-37.65 32.25-23.3Q33.5-25.25 34.97-26.2 36.45-27.15 38.45-27.15L38.45-27.15ZM59.55-27.15Q64.55-27.15 67.32-23.65 70.09-20.15 70.09-13.25L70.09-13.25Q70.09-6.65 67.3-2.95 64.5 0.75 59.55 0.75L59.55 0.75Q54.59 0.75 51.8-2.88 49-6.5 49-13.25L49-13.25Q49-19.95 51.8-23.55 54.59-27.15 59.55-27.15L59.55-27.15ZM59.55-22.5Q57.4-22.5 56.4-20.38 55.4-18.25 55.4-13.25L55.4-13.25Q55.4-8.2 56.4-6.08 57.4-3.95 59.55-3.95L59.55-3.95Q61.7-3.95 62.7-6.08 63.7-8.2 63.7-13.25L63.7-13.25Q63.7-18.3 62.7-20.4 61.7-22.5 59.55-22.5L59.55-22.5ZM86.84-27.15Q90.74-27.15 92.74-23.58 94.74-20 94.74-13.3L94.74-13.3Q94.74-6.8 92.47-3.03 90.19 0.75 86.14 0.75L86.14 0.75Q82.94 0.75 80.79-2.1L80.79-2.1 80.79 10.15 74.64 10.85 74.64-26.45 80.09-26.45 80.34-23.25Q81.64-25.25 83.24-26.2 84.84-27.15 86.84-27.15L86.84-27.15ZM84.49-3.95Q86.39-3.95 87.39-6.13 88.39-8.3 88.39-13.25L88.39-13.25Q88.39-18.45 87.54-20.5 86.69-22.55 84.89-22.55L84.89-22.55Q82.59-22.55 80.79-19.25L80.79-19.25 80.79-6.45Q82.39-3.95 84.49-3.95L84.49-3.95ZM131.24-26.45L136.94-26.45 132.39 0 124.89 0 121.94-20.85 119.04 0 111.59 0 106.94-26.45 112.89-26.45 115.59-4.6 118.94-26.45 125.19-26.45 128.39-4.6 131.24-26.45ZM140.44-26.45L146.59-26.45 146.59 0 140.44 0 140.44-26.45ZM143.49-39.65Q145.14-39.65 146.16-38.6 147.19-37.55 147.19-35.9L147.19-35.9Q147.19-34.3 146.16-33.25 145.14-32.2 143.49-32.2L143.49-32.2Q141.84-32.2 140.81-33.25 139.78-34.3 139.78-35.9L139.78-35.9Q139.78-37.55 140.81-38.6 141.84-39.65 143.49-39.65L143.49-39.65ZM163.43-5L165.58-1.2Q163.13 0.75 159.83 0.75L159.83 0.75Q156.38 0.75 154.58-1.23 152.78-3.2 152.78-6.6L152.78-6.6 152.78-22 149.68-22 149.68-26.45 152.78-26.45 152.78-32.3 158.93-33.05 158.93-26.45 163.93-26.45 163.33-22 158.93-22 158.93-6.6Q158.93-4.2 160.98-4.2L160.98-4.2Q161.63-4.2 162.13-4.38 162.63-4.55 163.43-5L163.43-5ZM180.48-27.15Q183.33-27.15 184.98-25.1 186.63-23.05 186.63-19.6L186.63-19.6 186.63 0 180.48 0 180.48-18.9Q180.48-20.8 179.96-21.63 179.43-22.45 178.43-22.45L178.43-22.45Q176.33-22.45 174.28-18.5L174.28-18.5 174.28 0 168.13 0 168.13-37 174.28-37.65 174.28-23.3Q175.53-25.25 177-26.2 178.48-27.15 180.48-27.15L180.48-27.15ZM217.08-34.55L223.33-34.55 215.33 0 207.38 0 199.08-34.55 205.53-34.55 211.43-5.6 217.08-34.55ZM226.07-26.45L232.22-26.45 232.22 0 226.07 0 226.07-26.45ZM229.12-39.65Q230.77-39.65 231.8-38.6 232.82-37.55 232.82-35.9L232.82-35.9Q232.82-34.3 231.8-33.25 230.77-32.2 229.12-32.2L229.12-32.2Q227.47-32.2 226.45-33.25 225.42-34.3 225.42-35.9L225.42-35.9Q225.42-37.55 226.45-38.6 227.47-39.65 229.12-39.65L229.12-39.65ZM245.27-27.15Q249.97-27.15 253.22-24.05L253.22-24.05 250.87-20.7Q249.47-21.7 248.22-22.2 246.97-22.7 245.67-22.7L245.67-22.7Q244.22-22.7 243.4-21.93 242.57-21.15 242.57-19.8L242.57-19.8Q242.57-18.45 243.5-17.63 244.42-16.8 247.22-15.7L247.22-15.7Q250.67-14.35 252.32-12.5 253.97-10.65 253.97-7.55L253.97-7.55Q253.97-3.7 251.27-1.48 248.57 0.75 244.42 0.75L244.42 0.75Q241.72 0.75 239.45-0.23 237.17-1.2 235.47-2.95L235.47-2.95 238.47-6.25Q241.27-3.8 244.17-3.8L244.17-3.8Q245.82-3.8 246.77-4.67 247.72-5.55 247.72-7.1L247.72-7.1Q247.72-8.25 247.32-8.97 246.92-9.7 245.92-10.33 244.92-10.95 242.92-11.7L242.92-11.7Q239.47-13.05 238-14.85 236.52-16.65 236.52-19.45L236.52-19.45Q236.52-22.8 238.9-24.98 241.27-27.15 245.27-27.15L245.27-27.15ZM257.82-26.45L263.97-26.45 263.97 0 257.82 0 257.82-26.45ZM260.87-39.65Q262.52-39.65 263.54-38.6 264.57-37.55 264.57-35.9L264.57-35.9Q264.57-34.3 263.54-33.25 262.52-32.2 260.87-32.2L260.87-32.2Q259.22-32.2 258.19-33.25 257.17-34.3 257.17-35.9L257.17-35.9Q257.17-37.55 258.19-38.6 259.22-39.65 260.87-39.65L260.87-39.65ZM279.07-27.15Q284.07-27.15 286.84-23.65 289.62-20.15 289.62-13.25L289.62-13.25Q289.62-6.65 286.82-2.95 284.02 0.75 279.07 0.75L279.07 0.75Q274.12 0.75 271.32-2.88 268.52-6.5 268.52-13.25L268.52-13.25Q268.52-19.95 271.32-23.55 274.12-27.15 279.07-27.15L279.07-27.15ZM279.07-22.5Q276.92-22.5 275.92-20.38 274.92-18.25 274.92-13.25L274.92-13.25Q274.92-8.2 275.92-6.08 276.92-3.95 279.07-3.95L279.07-3.95Q281.22-3.95 282.22-6.08 283.22-8.2 283.22-13.25L283.22-13.25Q283.22-18.3 282.22-20.4 281.22-22.5 279.07-22.5L279.07-22.5ZM306.51-27.15Q309.36-27.15 311.01-25.1 312.66-23.05 312.66-19.6L312.66-19.6 312.66 0 306.51 0 306.51-18.9Q306.51-20.8 305.99-21.63 305.46-22.45 304.46-22.45L304.46-22.45Q302.36-22.45 300.31-18.5L300.31-18.5 300.31 0 294.16 0 294.16-26.45 299.51-26.45 299.96-23Q301.31-25.1 302.84-26.13 304.36-27.15 306.51-27.15L306.51-27.15ZM320.61-7.05Q322.21-7.05 323.24-5.98 324.26-4.9 324.26-3.25L324.26-3.25Q324.26-2.55 324.04-1.78 323.81-1 323.46-0.08 323.11 0.85 323.01 1.2L323.01 1.2 320.36 8.55 316.91 8.55 318.71 0.1Q316.91-1.2 316.91-3.2L316.91-3.2Q316.91-4.85 317.96-5.95 319.01-7.05 320.61-7.05L320.61-7.05ZM346.36-34.55Q350.71-34.55 353.88-33.23 357.06-31.9 359.03-28.13 361.01-24.35 361.01-17.45L361.01-17.45Q361.01-7.7 357.13-3.85 353.26 0 347.01 0L347.01 0 338.66 0 338.66-34.55 346.36-34.55ZM347.31-29.8L345.01-29.8 345.01-4.75 347.36-4.75Q349.61-4.75 351.13-5.8 352.66-6.85 353.53-9.65 354.41-12.45 354.41-17.45L354.41-17.45Q354.41-22.55 353.48-25.25 352.56-27.95 351.03-28.88 349.51-29.8 347.31-29.8L347.31-29.8ZM377.25-27.1Q378.4-27.1 379.3-26.75L379.3-26.75 378.3-20.85Q377.3-21.1 376.45-21.1L376.45-21.1Q374.55-21.1 373.45-19.45 372.35-17.8 371.75-14.55L371.75-14.55 371.75 0 365.6 0 365.6-26.45 370.95-26.45 371.4-21.85Q373.25-27.1 377.25-27.1L377.25-27.1ZM401-13.85Q401-13.4 400.85-11.3L400.85-11.3 387.2-11.3Q387.4-7.2 388.63-5.58 389.85-3.95 392.1-3.95L392.1-3.95Q393.65-3.95 394.9-4.48 396.15-5 397.6-6.15L397.6-6.15 400.15-2.65Q396.65 0.75 391.75 0.75L391.75 0.75Q386.55 0.75 383.78-2.85 381-6.45 381-13L381-13Q381-19.55 383.65-23.35 386.3-27.15 391.15-27.15L391.15-27.15Q395.8-27.15 398.4-23.78 401-20.4 401-13.85L401-13.85ZM395-15.3L395-15.65Q395-19.4 394.1-21.13 393.2-22.85 391.2-22.85L391.2-22.85Q389.35-22.85 388.38-21.18 387.4-19.5 387.2-15.3L387.2-15.3 395-15.3ZM412.65-27.15Q417.35-27.15 420.6-24.05L420.6-24.05 418.25-20.7Q416.85-21.7 415.6-22.2 414.35-22.7 413.05-22.7L413.05-22.7Q411.6-22.7 410.77-21.93 409.95-21.15 409.95-19.8L409.95-19.8Q409.95-18.45 410.87-17.63 411.8-16.8 414.6-15.7L414.6-15.7Q418.05-14.35 419.7-12.5 421.35-10.65 421.35-7.55L421.35-7.55Q421.35-3.7 418.65-1.48 415.95 0.75 411.8 0.75L411.8 0.75Q409.1 0.75 406.82-0.23 404.55-1.2 402.85-2.95L402.85-2.95 405.85-6.25Q408.65-3.8 411.55-3.8L411.55-3.8Q413.2-3.8 414.15-4.67 415.1-5.55 415.1-7.1L415.1-7.1Q415.1-8.25 414.7-8.97 414.3-9.7 413.3-10.33 412.3-10.95 410.3-11.7L410.3-11.7Q406.85-13.05 405.37-14.85 403.9-16.65 403.9-19.45L403.9-19.45Q403.9-22.8 406.27-24.98 408.65-27.15 412.65-27.15L412.65-27.15ZM432.55-27.15Q437.25-27.15 440.5-24.05L440.5-24.05 438.15-20.7Q436.75-21.7 435.5-22.2 434.25-22.7 432.95-22.7L432.95-22.7Q431.5-22.7 430.67-21.93 429.85-21.15 429.85-19.8L429.85-19.8Q429.85-18.45 430.77-17.63 431.7-16.8 434.5-15.7L434.5-15.7Q437.95-14.35 439.6-12.5 441.25-10.65 441.25-7.55L441.25-7.55Q441.25-3.7 438.55-1.48 435.85 0.75 431.7 0.75L431.7 0.75Q429 0.75 426.72-0.23 424.45-1.2 422.75-2.95L422.75-2.95 425.75-6.25Q428.55-3.8 431.45-3.8L431.45-3.8Q433.1-3.8 434.05-4.67 435-5.55 435-7.1L435-7.1Q435-8.25 434.6-8.97 434.2-9.7 433.2-10.33 432.2-10.95 430.2-11.7L430.2-11.7Q426.75-13.05 425.27-14.85 423.8-16.65 423.8-19.45L423.8-19.45Q423.8-22.8 426.17-24.98 428.55-27.15 432.55-27.15L432.55-27.15ZM476.99-26.45L482.69-26.45 478.14 0 470.64 0 467.69-20.85 464.79 0 457.34 0 452.69-26.45 458.64-26.45 461.34-4.6 464.69-26.45 470.94-26.45 474.14-4.6 476.99-26.45ZM486.19-26.45L492.34-26.45 492.34 0 486.19 0 486.19-26.45ZM489.24-39.65Q490.89-39.65 491.91-38.6 492.94-37.55 492.94-35.9L492.94-35.9Q492.94-34.3 491.91-33.25 490.89-32.2 489.24-32.2L489.24-32.2Q487.59-32.2 486.56-33.25 485.54-34.3 485.54-35.9L485.54-35.9Q485.54-37.55 486.56-38.6 487.59-39.65 489.24-39.65L489.24-39.65ZM509.19-5L511.34-1.2Q508.89 0.75 505.59 0.75L505.59 0.75Q502.14 0.75 500.34-1.23 498.54-3.2 498.54-6.6L498.54-6.6 498.54-22 495.44-22 495.44-26.45 498.54-26.45 498.54-32.3 504.69-33.05 504.69-26.45 509.69-26.45 509.09-22 504.69-22 504.69-6.6Q504.69-4.2 506.74-4.2L506.74-4.2Q507.39-4.2 507.89-4.38 508.39-4.55 509.19-5L509.19-5ZM526.23-27.15Q529.08-27.15 530.73-25.1 532.38-23.05 532.38-19.6L532.38-19.6 532.38 0 526.23 0 526.23-18.9Q526.23-20.8 525.71-21.63 525.18-22.45 524.18-22.45L524.18-22.45Q522.08-22.45 520.03-18.5L520.03-18.5 520.03 0 513.88 0 513.88-37 520.03-37.65 520.03-23.3Q521.28-25.25 522.76-26.2 524.23-27.15 526.23-27.15L526.23-27.15ZM547.93-34.55L554.28-34.55 554.28 0 547.93 0 547.93-34.55ZM572.48-27.15Q575.32-27.15 576.98-25.1 578.63-23.05 578.63-19.6L578.63-19.6 578.63 0 572.48 0 572.48-18.9Q572.48-20.8 571.95-21.63 571.42-22.45 570.42-22.45L570.42-22.45Q568.32-22.45 566.27-18.5L566.27-18.5 566.27 0 560.13 0 560.13-26.45 565.48-26.45 565.92-23Q567.27-25.1 568.8-26.13 570.32-27.15 572.48-27.15L572.48-27.15ZM595.32-5L597.47-1.2Q595.02 0.75 591.72 0.75L591.72 0.75Q588.27 0.75 586.47-1.23 584.67-3.2 584.67-6.6L584.67-6.6 584.67-22 581.57-22 581.57-26.45 584.67-26.45 584.67-32.3 590.82-33.05 590.82-26.45 595.82-26.45 595.22-22 590.82-22 590.82-6.6Q590.82-4.2 592.87-4.2L592.87-4.2Q593.52-4.2 594.02-4.38 594.52-4.55 595.32-5L595.32-5ZM618.17-26.45L618.17 0 612.82 0 612.52-3.35Q611.27-1.3 609.72-0.28 608.17 0.75 606.12 0.75L606.12 0.75Q603.22 0.75 601.54-1.3 599.87-3.35 599.87-6.65L599.87-6.65 599.87-26.45 606.02-26.45 606.02-7Q606.02-3.9 608.12-3.9L608.12-3.9Q609.32-3.9 610.27-4.83 611.22-5.75 612.02-7.45L612.02-7.45 612.02-26.45 618.17-26.45ZM623.87-26.45L630.02-26.45 630.02 0 623.87 0 623.87-26.45ZM626.92-39.65Q628.57-39.65 629.59-38.6 630.62-37.55 630.62-35.9L630.62-35.9Q630.62-34.3 629.59-33.25 628.57-32.2 626.92-32.2L626.92-32.2Q625.27-32.2 624.24-33.25 623.22-34.3 623.22-35.9L623.22-35.9Q623.22-37.55 624.24-38.6 625.27-39.65 626.92-39.65L626.92-39.65ZM646.86-5L649.01-1.2Q646.56 0.75 643.26 0.75L643.26 0.75Q639.81 0.75 638.01-1.23 636.21-3.2 636.21-6.6L636.21-6.6 636.21-22 633.11-22 633.11-26.45 636.21-26.45 636.21-32.3 642.36-33.05 642.36-26.45 647.36-26.45 646.76-22 642.36-22 642.36-6.6Q642.36-4.2 644.41-4.2L644.41-4.2Q645.06-4.2 645.56-4.38 646.06-4.55 646.86-5L646.86-5ZM651.56-26.45L657.71-26.45 657.71 0 651.56 0 651.56-26.45ZM654.61-39.65Q656.26-39.65 657.29-38.6 658.31-37.55 658.31-35.9L658.31-35.9Q658.31-34.3 657.29-33.25 656.26-32.2 654.61-32.2L654.61-32.2Q652.96-32.2 651.94-33.25 650.91-34.3 650.91-35.9L650.91-35.9Q650.91-37.55 651.94-38.6 652.96-39.65 654.61-39.65L654.61-39.65ZM672.81-27.15Q677.81-27.15 680.58-23.65 683.36-20.15 683.36-13.25L683.36-13.25Q683.36-6.65 680.56-2.95 677.76 0.75 672.81 0.75L672.81 0.75Q667.86 0.75 665.06-2.88 662.26-6.5 662.26-13.25L662.26-13.25Q662.26-19.95 665.06-23.55 667.86-27.15 672.81-27.15L672.81-27.15ZM672.81-22.5Q670.66-22.5 669.66-20.38 668.66-18.25 668.66-13.25L668.66-13.25Q668.66-8.2 669.66-6.08 670.66-3.95 672.81-3.95L672.81-3.95Q674.96-3.95 675.96-6.08 676.96-8.2 676.96-13.25L676.96-13.25Q676.96-18.3 675.96-20.4 674.96-22.5 672.81-22.5L672.81-22.5ZM700.26-27.15Q703.11-27.15 704.76-25.1 706.41-23.05 706.41-19.6L706.41-19.6 706.41 0 700.26 0 700.26-18.9Q700.26-20.8 699.73-21.63 699.21-22.45 698.21-22.45L698.21-22.45Q696.11-22.45 694.06-18.5L694.06-18.5 694.06 0 687.91 0 687.91-26.45 693.26-26.45 693.71-23Q695.06-25.1 696.58-26.13 698.11-27.15 700.26-27.15L700.26-27.15Z" opacity="1" transform="matrix(1,0,0,1,0,0)" fill="black" class="slogan-text-1" id="SvgjsPath1992"></path></svg></g></svg></g></svg></g></svg></g><g><svg viewBox="0 0 303.7221526097802 225.3432815899866" height="225.3432815899866" width="303.7221526097802"><g><svg xmlns="http://www.w3.org/2000/svg" xmlns:xlink="http://www.w3.org/1999/xlink" version="1.1" x="0" y="0" viewBox="5.132408955589326 16.710673764624296 89.73559104441067 66.5783262353757" enable-background="new 0 0 100 100" xml:space="preserve" height="225.3432815899866" width="303.7221526097802" class="icon-icon-0" data-fill-palette-color="accent" id="SvgjsSvg1991"><g fill="black"><g fill="black"><path fill-rule="evenodd" clip-rule="evenodd" d="M74.326 68.963c-0.798-0.145-1.9-0.323-2.992-0.555-0.341-0.071-0.667-0.255-0.974-0.432-1.325-0.767-1.746-1.954-0.93-3.247 0.693-1.103 1.573-2.117 2.501-3.037 1.594-1.582 3.297-3.057 4.94-4.588 4.552-4.241 7.812-9.313 9.824-15.2 0.328-0.958 0.706-1.908 1.158-2.812 0.898-1.788 2-1.927 3.344-0.457 1.32 1.445 2.083 3.202 2.522 5.069 1.868 7.964-0.336 14.692-6.371 20.143-2.905 2.626-6.373 4.208-10.25 4.836C76.294 68.814 75.471 68.851 74.326 68.963z" fill="black"></path><path fill-rule="evenodd" clip-rule="evenodd" d="M92.634 38.514c-0.653-1.049-1.292-2.153-2.012-3.201-0.739-1.076-1.61-2.049-2.715-2.778-1.506-0.995-2.472-0.662-2.837 1.085-0.302 1.443-0.484 2.917-0.636 4.387-0.803 7.851-4.379 14.12-10.652 18.884-3.111 2.361-6.535 4.188-9.985 5.977-1.898 0.982-3.829 1.915-5.486 3.297-0.393 0.328-0.756 0.713-1.059 1.125-0.763 1.045-0.708 2.198 0.128 3.191 1.074 1.28 2.537 1.934 4.071 2.445 2.922 0.974 5.939 1.181 8.983 0.946 4.886-0.38 9.429-1.859 13.513-4.59 5.735-3.835 9.416-9.074 10.688-15.92 0.022-0.119 0.062-0.233 0.094-0.349 0.047 0.01 0.093 0.02 0.139 0.029-0.181 0.872-0.324 1.753-0.547 2.613-2.235 8.58-7.57 14.593-15.453 18.412-5.266 2.551-10.866 3.581-16.712 3.264-3.956-0.216-7.766-1.03-11.323-2.828-1.505-0.76-2.909-1.677-3.968-3.024-0.655-0.834-1.134-1.74-0.875-2.858 0.202-0.87 0.787-1.468 1.482-1.96 1.446-1.021 3.11-1.567 4.779-2.079 3.403-1.045 6.838-1.997 10.215-3.117 3.978-1.317 7.716-3.146 11.027-5.763 4.653-3.679 7.529-8.396 8.347-14.309 0.316-2.291 0.267-4.588 0.09-6.89-0.128-1.651-0.202-3.308-0.271-4.962-0.012-0.289 0.091-0.601 0.205-0.875 0.252-0.599 0.808-0.91 1.45-0.637 0.891 0.377 1.806 0.802 2.549 1.404 3.007 2.436 5.117 5.572 6.777 9.031C92.651 38.49 92.632 38.53 92.634 38.514z" fill="black"></path><path fill-rule="evenodd" clip-rule="evenodd" d="M43.539 16.952c-1.064 0.275-2.123 0.514-3.159 0.832-0.556 0.169-1.102 0.425-1.59 0.738-0.281 0.179-0.594 0.55-0.597 0.837-0.001 0.221 0.426 0.553 0.723 0.647 0.964 0.307 1.947 0.575 2.939 0.775 4.686 0.946 9.3 2.127 13.712 4.012 5.238 2.238 9.98 5.27 14.37 8.877 0.411 0.338 0.821 0.678 1.19 1.075-1.092-0.709-2.184-1.42-3.275-2.129-4.513-2.929-9.213-5.479-14.349-7.164-5.083-1.667-10.277-2.512-15.63-2.206-2.663 0.152-5.274 0.613-7.754 1.648-4.807 2.005-7.589 5.706-8.757 10.675-1.146 4.878-0.354 9.594 1.414 14.196 0.062 0.159 0.12 0.32 0.18 0.48-0.048 0.021-0.096 0.042-0.143 0.062-0.599-1.321-1.237-2.628-1.789-3.97-1.365-3.326-2.043-6.811-2.353-10.381-0.086-1.01-0.214-2.024-0.43-3.013-0.267-1.221-0.986-1.602-2.189-1.245-1.295 0.385-2.363 1.169-3.342 2.059-3.771 3.432-5.965 7.731-6.772 12.729-1.026 6.351 0.45 12.201 3.736 17.652 0.108 0.182 0.216 0.36 0.263 0.589-0.053-0.064-0.112-0.125-0.158-0.194-2.564-3.895-4.199-8.132-4.564-12.798-0.51-6.521 1.353-12.361 5.282-17.558 2.842-3.758 6.466-6.62 10.478-9.019 4.056-2.426 8.189-4.7 12.683-6.241 3.086-1.059 6.281-1.576 9.505-1.965C43.285 16.939 43.411 16.952 43.539 16.952z" fill="black"></path><path fill-rule="evenodd" clip-rule="evenodd" d="M61.55 61.343c-2.16 0.432-4.308 0.96-6.484 1.273-3.546 0.512-7.112 0.87-10.667 1.316-1.714 0.217-3.426 0.478-5.038 1.151-2.632 1.103-3.239 3.024-1.707 5.444 1.121 1.772 2.715 3.062 4.453 4.177 3.482 2.239 7.323 3.559 11.365 4.323 3.829 0.723 7.688 0.867 11.56 0.423 6.403-0.734 12.298-2.837 17.522-6.675 0.137-0.102 0.28-0.188 0.421-0.283 0.027 0.041 0.057 0.079 0.085 0.119-0.994 0.725-1.971 1.477-2.987 2.169-4.866 3.32-10.242 5.348-16.062 6.188-8.425 1.216-16.525 0.121-24.223-3.575-3.16-1.518-6.029-3.465-8.351-6.133-1.098-1.261-2.023-2.628-2.404-4.294-0.399-1.745 0.25-3.111 1.865-3.873 1.1-0.519 2.284-0.745 3.479-0.742 2.764 0.002 5.529 0.042 8.29 0.152 4.246 0.17 8.493 0.326 12.723-0.194 2.06-0.255 4.099-0.687 6.146-1.039C61.541 61.295 61.546 61.319 61.55 61.343z" fill="black"></path><path fill-rule="evenodd" clip-rule="evenodd" d="M65.631 81.426c-1.752 0.377-3.496 0.797-5.258 1.123-4.186 0.775-8.406 0.904-12.628 0.417-8.404-0.967-16.037-3.862-22.574-9.342-3.041-2.547-5.567-5.528-7.092-9.246-0.675-1.647-1.105-3.351-0.79-5.159 0.323-1.852 1.667-3.017 3.546-3.101 1.593-0.071 3.128 0.24 4.623 0.725 3.147 1.024 6.268 2.136 9.419 3.148 2.197 0.705 4.428 1.307 6.489 1.908-1.008-0.179-2.186-0.391-3.364-0.598-2.822-0.501-5.641-1.03-8.47-1.488-1.357-0.22-2.733-0.254-4.098 0.041-2.114 0.458-3.188 2.023-2.868 4.176 0.316 2.126 1.326 3.934 2.604 5.604 2.893 3.78 6.67 6.446 10.891 8.527 4.302 2.122 8.855 3.419 13.616 3.999 5.237 0.636 10.424 0.396 15.559-0.841 0.119-0.027 0.243-0.036 0.364-0.054C65.611 81.318 65.621 81.372 65.631 81.426z" fill="black"></path><path fill-rule="evenodd" clip-rule="evenodd" d="M44.913 83.289c-1.744-0.25-3.499-0.436-5.228-0.76-6.602-1.23-12.641-3.782-17.982-7.884-4.446-3.413-8-7.559-10.145-12.798-1.127-2.755-1.751-5.611-1.436-8.611 0.153-1.453 0.517-2.843 1.405-4.04 1.021-1.377 2.398-1.835 4.061-1.358 1.625 0.468 2.977 1.436 4.318 2.41 3.084 2.243 6.149 4.512 9.235 6.751 0.597 0.434 1.252 0.786 1.841 1.249-0.658-0.332-1.319-0.661-1.976-0.996-2.666-1.357-5.312-2.758-8.01-4.048-0.95-0.456-2.006-0.749-3.046-0.94-2.829-0.517-4.246 1.267-4.625 3.479-0.419 2.452 0.105 4.788 1.01 7.053 1.531 3.833 3.972 7.034 6.996 9.795 6.155 5.619 13.456 8.838 21.624 10.209 0.66 0.113 1.324 0.203 1.986 0.305C44.931 83.166 44.922 83.228 44.913 83.289z" fill="black"></path><path fill-rule="evenodd" clip-rule="evenodd" d="M26.441 78.456c-1.506-0.831-3.045-1.606-4.512-2.503-5.457-3.332-9.819-7.72-12.717-13.471-2.046-4.059-3.056-8.358-2.717-12.915 0.258-3.476 1.25-6.717 3.425-9.511 0.694-0.892 1.497-1.679 2.549-2.156 1.16-0.525 2.181-0.4 3.013 0.559 0.681 0.787 1.256 1.682 1.777 2.587 1.519 2.638 2.908 5.354 4.503 7.943 1.015 1.646 2.305 3.122 3.47 4.674 0.059 0.076 0.114 0.153 0.102 0.294-0.189-0.177-0.387-0.344-0.563-0.531-2.334-2.506-4.648-5.03-7.004-7.515-0.745-0.786-1.543-1.546-2.419-2.176-1.792-1.29-3.593-0.977-4.987 0.751-1.247 1.542-1.877 3.349-2.174 5.273-0.769 4.979 0.408 9.599 2.748 13.957 3.153 5.875 7.855 10.214 13.588 13.504 0.662 0.38 1.343 0.73 2.015 1.093C26.504 78.36 26.473 78.408 26.441 78.456z" fill="black"></path><path fill-rule="evenodd" clip-rule="evenodd" d="M21.966 46.788c-0.077-0.734-0.177-1.468-0.226-2.205-0.283-4.324 0.528-8.38 3.043-11.989 2.307-3.308 5.52-5.363 9.319-6.547 3.768-1.173 7.627-1.387 11.538-1.024 6.396 0.592 12.308 2.747 18.021 5.549 0.541 0.266 1.083 0.533 1.594 0.866-1.375-0.504-2.749-1.01-4.123-1.514-3.6-1.318-7.243-2.485-11.039-3.105-5.445-0.89-10.847-0.888-16.077 1.124-6.586 2.533-10.511 7.299-11.675 14.286-0.126 0.754-0.19 1.524-0.229 2.288-0.038 0.748-0.008 1.498-0.008 2.247C22.059 46.771 22.012 46.78 21.966 46.788z" fill="black"></path><path fill-rule="evenodd" clip-rule="evenodd" d="M75.267 38.73c-0.522-0.592-1.046-1.183-1.566-1.775-6.062-6.909-13.469-11.91-21.917-15.434-1.429-0.596-2.843-1.229-4.243-1.888-0.509-0.24-0.994-0.566-1.425-0.93-0.544-0.461-0.485-1.019 0.186-1.306 0.727-0.311 1.517-0.614 2.291-0.645 2.044-0.083 4.094-0.017 6.143-0.007 0.06 0 0.121 0.035 0.307 0.091-0.725 0.07-1.323 0.093-1.905 0.194-0.497 0.086-1.1 0.137-1.261 0.73-0.161 0.594 0.304 0.986 0.719 1.269 1.542 1.054 3.09 2.103 4.682 3.078 4.7 2.877 9.134 6.088 12.935 10.112 1.816 1.923 3.463 3.979 4.943 6.168 0.065 0.097 0.118 0.201 0.177 0.302C75.309 38.703 75.287 38.717 75.267 38.73z" fill="black"></path><path fill-rule="evenodd" clip-rule="evenodd" d="M81.998 26.127c-0.353-0.185-0.695-0.394-1.062-0.549-0.423-0.179-0.858-0.351-1.305-0.456-0.975-0.229-1.585 0.214-1.502 1.216 0.092 1.074 0.342 2.138 0.565 3.197 0.522 2.47 1.252 4.911 1.576 7.405 0.924 7.096-1.089 13.205-6.565 18.001 0.246-0.251 0.496-0.496 0.736-0.754 0.257-0.271 0.516-0.544 0.755-0.83 3.028-3.667 4.252-7.914 4.035-12.619-0.187-3.998-1.443-7.711-2.998-11.348-0.616-1.438-1.203-2.891-1.774-4.347-0.142-0.359-0.211-0.757-0.251-1.143-0.082-0.8 0.356-1.286 1.159-1.227 0.508 0.037 1.024 0.157 1.503 0.334C78.772 23.713 80.395 24.906 81.998 26.127z" fill="black"></path><path fill-rule="evenodd" clip-rule="evenodd" d="M77.751 43.611c-1.376-4.173-3.517-7.787-6.17-11.111-2.526-3.166-5.467-5.913-8.606-8.458-1.51-1.224-3.026-2.438-4.517-3.685-0.447-0.374-0.858-0.811-1.211-1.275-0.618-0.814-0.389-1.431 0.615-1.609 0.625-0.11 1.289-0.171 1.911-0.083 1.462 0.206 2.908 0.513 4.36 0.782 0.079 0.015 0.153 0.057 0.339 0.129-0.69 0-1.262-0.045-1.824 0.01-0.904 0.089-1.205 0.626-0.729 1.407 0.422 0.693 0.935 1.348 1.49 1.943 2.08 2.229 4.267 4.362 6.28 6.65 3.594 4.081 6.42 8.621 7.827 13.942 0.095 0.361 0.172 0.726 0.251 1.09C77.779 43.394 77.763 43.448 77.751 43.611z" fill="black"></path><path fill-rule="evenodd" clip-rule="evenodd" d="M77.906 48.028c0.035-0.298 0.076-0.596 0.104-0.896 0.42-4.531-0.779-8.716-2.741-12.735-1.65-3.385-3.87-6.395-6.187-9.341-0.781-0.994-1.548-2.003-2.271-3.039-0.312-0.446-0.549-0.96-0.73-1.476-0.209-0.586 0.073-1.078 0.688-1.132 0.628-0.055 1.303-0.066 1.896 0.108 1.624 0.477 3.216 1.061 4.776 1.704-0.678-0.115-1.353-0.292-2.035-0.33-0.942-0.053-1.365 0.466-1.023 1.356 0.414 1.072 0.931 2.117 1.513 3.108 1.677 2.856 3.42 5.674 4.663 8.761 1.331 3.308 2.156 6.718 1.961 10.309-0.065 1.213-0.284 2.418-0.435 3.626C78.026 48.045 77.966 48.037 77.906 48.028z" fill="black"></path><path fill-rule="evenodd" clip-rule="evenodd" d="M22.331 43.36c0.306-1.013 0.555-2.047 0.925-3.036 2.283-6.102 6.735-9.877 12.841-11.822 3.4-1.083 6.903-1.393 10.457-1.234 3.721 0.167 7.351 0.881 10.954 1.77 0.095 0.024 0.186 0.074 0.394 0.159-1.729-0.234-3.329-0.464-4.934-0.667-5.219-0.657-10.42-0.796-15.543 0.669-7.35 2.103-12.439 6.627-14.863 13.977-0.026 0.077-0.053 0.153-0.079 0.229C22.432 43.392 22.381 43.375 22.331 43.36z" fill="black"></path><path fill-rule="evenodd" clip-rule="evenodd" d="M48.016 28.454c-2.662 0.242-5.287 0.608-7.878 1.205-5.475 1.26-10.307 3.687-14.169 7.856-0.308 0.333-0.6 0.678-0.9 1.017-0.034-0.029-0.069-0.058-0.104-0.087 0.527-0.634 1.031-1.288 1.584-1.898 3.133-3.454 7.043-5.619 11.497-6.861 3.181-0.888 6.44-1.188 9.727-1.261C47.854 28.424 47.935 28.444 48.016 28.454z" fill="black"></path><path fill-rule="evenodd" clip-rule="evenodd" d="M14.697 28.899c-0.656 0.67-1.311 1.341-2.005 2.051 0.717-0.694 1.396-1.35 2.074-2.006C14.743 28.929 14.719 28.915 14.697 28.899z" fill="black"></path></g></g></svg></g></svg></g></svg></g><defs><mask></mask></defs></svg><rect width="395.5199999999999" height="124.32409466704172" fill="black" stroke="none" visibility="hidden"></rect></g></mask><linearGradient x1="0" x2="1" y1="0.548" y2="0.55" id="93528b2e-2e1d-4918-88af-2dab1b3b1068"><stop stop-color="#ff6cab" offset="0"></stop><stop stop-color="#7366ff" offset="1"></stop></linearGradient><rect width="395.5199999999999" height="124.32409466704172" fill="url(#93528b2e-2e1d-4918-88af-2dab1b3b1068)" mask="url(#1986bf23-8834-4930-9a77-53bd802fc87d)" data-fill-palette-color="primary"></rect></svg><rect width="395.5199999999999" height="124.32409466704172" fill="none" stroke="none" visibility="hidden"></rect></g></svg></g></svg>